<?xml version="1.0" encoding="utf-8"?>
<svg id="master-artboard" viewBox="0 0 1359.8629150390625 1504.8929443359375" version="1.1" xmlns="http://www.w3.org/2000/svg" x="0px" y="0px" style="enable-background:new 0 0 1400 980;" width="1359.8629150390625px" height="1504.8929443359375px"><defs><path id="text-path-0" d="M 107.336669921875 220.6958465576172 A 100 100 0 0 1 1229.315185546875 220.6958465576172 A 100 100 0 0 1 107.336669921875 220.6958465576172" style="fill: none; stroke: red; stroke-width: 2;"/><style id="ee-google-fonts">@import url(https://fonts.googleapis.com/css?family=Amatic+SC:400,700|Smythe:400|Gochi+Hand:400|Londrina+Sketch:400|Montserrat:400,700);</style><linearGradient id="gradient-0" gradientUnits="userSpaceOnUse" x1="668.7729187011719" y1="-482.37371826171875" x2="668.7729187011719" y2="-223.5240478515625">
                <stop offset="0" style="stop-color: #0091ff"/>
                <stop offset="1" style="stop-color: #005799"/>
              </linearGradient></defs><rect id="ee-background" x="0" y="0" width="1359.8629150390625" height="1504.8929443359375" style="fill: white; fill-opacity: 0; pointer-events: none;"/>






<path fill-rule="evenodd" clip-rule="evenodd" fill="none" d="M598.5,318c-0.8-0.2-1.3-0.4-1.9-0.5c-0.5-0.1-1-0.2-1.4-0.3&#10;&#9;c-1.1-1.6-1.3-3.2-0.1-4.8c2.8-0.5,4,1.3,4.9,3.4C599.5,316.4,599.1,317.1,598.5,318z" transform="matrix(1, 0, 0, 1, -541.7720227241516, 458.109619140625)"/><path fill-rule="evenodd" clip-rule="evenodd" fill="none" d="M595.2,311c-1-2.7-1-2.7,0.2-5.2c1.9,0.4,3.5,2.2,3.3,3.5&#10;&#9;C598.4,310.7,597.6,311.2,595.2,311z" transform="matrix(1, 0, 0, 1, -541.7720227241516, 458.109619140625)"/><path d="M 592.3395385742188 697.2050170898438 L 592.3395385742188 697.2050170898438" style="fill: rgb(65, 61, 17); fill-opacity: 1; stroke: rgb(0, 0, 0); stroke-opacity: 1; stroke-width: 0; paint-order: fill;"/><path fill="#FFDA00" d="M1088.9,949.6c0-20.4-5.5-39.5-15.1-56v-75.3c0-9.3-7.5-16.8-16.8-16.8s-16.8,7.5-16.8,16.8v39.1&#10;&#9;&#9;&#9;c-9.4-6.4-19.8-11.5-31-14.8v-78.7c0-9.3-7.5-16.8-16.8-16.8s-16.8,7.5-16.8,16.8v74c-11.3,0.1-22.1,1.9-32.4,5.1v-55.2&#10;&#9;&#9;&#9;c0-9.3-7.5-16.8-16.8-16.8c-9.3,0-16.8,7.5-16.8,16.8v72.5c-27.1,20.4-44.6,52.8-44.6,89.3c0,61.7,50,111.8,111.8,111.8&#10;&#9;&#9;&#9;C1038.8,1061.4,1088.9,1011.4,1088.9,949.6z" transform="matrix(3.408663749694824, 0, 0, 3.408663749694824, -2650.3135104542603, -2270.9989320454415)" style="fill: rgb(255, 255, 255);"/><path d="M 1053.599976 949.599976 A 76.5 76.5 0 0 1 977.099976 1026.099976 A 76.5 76.5 0 0 1 900.599976 949.599976 A 76.5 76.5 0 0 1 977.099976 873.099976 A 76.5 76.5 0 0 1 1053.599976 949.599976 Z" fill="#F6861F" transform="matrix(3.408663749694824, 0, 0, 3.408663749694824, -2650.3135104542603, -2270.9989320454415)" style="fill: rgb(182, 138, 228);"/><path fill="#FFDA00" d="M1020.3,780.4v-65c0-9.3,7.5-16.8,16.8-16.8s16.8,7.5,16.8,16.8v65c0,9.3-7.5,16.8-16.8,16.8&#10;&#9;&#9;&#9;&#9;S1020.3,789.7,1020.3,780.4z" transform="matrix(3.408663749694824, 0, 0, 3.408663749694824, -2650.3135104542603, -2270.9989320454415)" style="fill: rgb(190, 144, 238);"/><path fill="#FFDA00" d="M1006.4,946.5c-6.4-7.7-15.8-10.9-25.3-12.5c-1.4-10.2-2.8-20.5-4-30.7c6.1-0.3,12.5,1.1,17.9,2.9&#10;&#9;&#9;&#9;c0.4,0.1,0.7,0.3,1.1,0.4c4.3,1.5,6.8-5,3-7.2c-7.3-4.3-15.5-6.8-23.5-6.9c0-0.4-0.1-0.8-0.1-1.1c0.1-0.3,0.1-0.7,0.1-1.1&#10;&#9;&#9;&#9;c0-1.6-0.5-2.6-1.5-3.8c-1-1.2-3.4-1.6-4.7-0.6c-2.3,1.7-3.1,4.6-3.3,7.7c-6.9,1.8-13.3,5.8-18.2,12.6c-6.3,8.7-9.3,20.8-2.6,30.2&#10;&#9;&#9;&#9;c5.9,8.4,16.4,9.7,25.8,10.4c0.1,0,0.2,0,0.3,0c0.5,4.4,1,8.7,1.5,13.1c1,9.3,2.1,18.5,3.8,27.7c0.5,2.8,1.1,5.5,1.7,8.2&#10;&#9;&#9;&#9;c-0.2,0-0.5,0-0.7,0.1c-6.3,0.4-11.8-1.1-17.7-2.8c-5-1.4-8.1-4.6-10.5-9.1c-2.6-5.1-10.7-1.5-9.1,3.9c1.4,4.8,3.8,8.8,6.9,12.7&#10;&#9;&#9;&#9;c4.1,5.2,10.3,6.9,16.3,8.9c5.5,1.9,12.7,1.3,18.5,0.5c0.4,1.5,0.8,2.9,1.2,4.4c1.3,4.4,7,3,7.5-1c0.2-1.8,0.3-3.7,0.3-5.5&#10;&#9;&#9;&#9;c2.6-0.9,5.2-2.1,7.6-3.6C1019.1,991.9,1020.7,963.9,1006.4,946.5z M956,927.6c-2.3-3.9-0.2-9.2,1.8-12.7c2.2-4.1,5.5-6.9,9.5-9&#10;&#9;&#9;&#9;c0.8,9,1.6,18.1,2.6,27.1C964.4,932.7,958.5,932,956,927.6z M999.7,983.3c-2.2,4.5-5.9,7.6-10.2,9.6c-0.3-1.8-0.6-3.5-0.9-5.3&#10;&#9;&#9;&#9;c-1.5-9.2-2.8-18.5-4-27.8c-0.5-3.8-1-7.6-1.5-11.4c4.7,1.2,9,3.2,12.6,6.9C1002.6,962.4,1004,974.6,999.7,983.3z" transform="matrix(3.408663749694824, 0, 0, 3.408663749694824, -2650.3135104542603, -2270.9989320454415)" style="fill: rgb(255, 255, 255);"/><path fill="#FFF33E" d="M1076.7,976.1c7.6-11.4,5.4-25.7,3.9-38.5c-0.6-5.3-7.8-5.4-8.3,0c-1.2,11.7-2.4,23.1-4.9,34.6&#10;&#9;&#9;&#9;C1066.1,977.9,1073.5,981,1076.7,976.1z" transform="matrix(3.408663749694824, 0, 0, 3.408663749694824, -2650.3135104542603, -2270.9989320454415)" style="fill: rgb(0, 0, 0);"/><path fill="#FFF33E" d="M1064.2,1005.6c2.9-2.6,3.3-6,5.3-8.9c2.9-4.2-3.6-9.1-7-5.4c-3,3.2-5,7.1-5,11.5&#10;&#9;&#9;&#9;C1057.5,1006.3,1061.7,1007.9,1064.2,1005.6z" transform="matrix(3.408663749694824, 0, 0, 3.408663749694824, -2650.3135104542603, -2270.9989320454415)" style="fill: rgb(0, 0, 0);"/></svg>