<?xml version="1.0" encoding="utf-8"?>
<svg id="master-artboard" viewBox="0 0 1113.47607421875 1464.0589599609375" version="1.1" xmlns="http://www.w3.org/2000/svg" x="0px" y="0px" style="enable-background:new 0 0 1400 980;" width="1113.47607421875px" height="1464.0589599609375px"><rect id="ee-background" x="0" y="0" width="1113.47607421875" height="1464.0589599609375" style="fill: rgb(0, 0, 0); fill-opacity: 1; pointer-events: none;"/><defs><linearGradient id="gradient-67" gradientUnits="userSpaceOnUse" x1="104.99999618530273" y1="1065.4000244140625" x2="104.99999618530273" y2="1162">
                <stop offset="0" style="stop-color: #ffffff"/>
                <stop offset="1" style="stop-color: #cccccc"/>
              </linearGradient><linearGradient id="gradient-68" gradientUnits="userSpaceOnUse" x1="700.0499801635742" y1="179.09996032714844" x2="700.0499801635742" y2="845.5998992919922">
                <stop offset="0" style="stop-color: #ffffff"/>
                <stop offset="1" style="stop-color: #cccccc"/>
              </linearGradient><clipPath id="clipPath24" clipPathUnits="userSpaceOnUse"><path id="path22" d="m 18658,13460.1 v 0 c -80.3,0 -159.2,6.5 -236,19 -154.7,25.2 -301.4,74.8 -435.9,144.6 -134.2,69.6 -256.4,159.5 -362.4,265.5 -105.9,106 -195.8,228.1 -265.4,362.3 -69.9,134.5 -119.4,281.2 -144.6,435.9 -12.5,76.9 -19,155.7 -19,236 0,80.4 6.5,159.3 19,236.1 25.2,154.6 74.6,301 144.3,435.4 69.7,134.4 159.7,256.7 265.7,362.8 106,106 228.2,195.8 362.4,265.5 134.5,69.8 281.2,119.4 435.9,144.6 76.8,12.5 155.7,19 236,19 80.4,0 159.2,-6.5 236.1,-19.1 154.5,-25.1 301,-74.6 435.4,-144.3 134.4,-69.7 256.6,-159.6 362.7,-265.7 106.1,-106.1 196.1,-228.4 265.8,-362.8 69.7,-134.4 119.1,-280.8 144.3,-435.4 12.5,-76.8 19,-155.7 19,-236.1 v 0 c 0,-80.3 -6.5,-159.1 -19,-236 -25.2,-154.7 -74.7,-301.4 -144.6,-435.9 -69.6,-134.2 -159.5,-256.3 -265.5,-362.3 -106.1,-106.1 -228.3,-196 -362.7,-265.7 -134.4,-69.7 -280.9,-119.2 -435.4,-144.4 -76.9,-12.5 -155.7,-19 -236.1,-19"/></clipPath><clipPath id="clipPath36" clipPathUnits="userSpaceOnUse"><path id="path34" d="m 21968.9,13460.1 v 0 c -80.3,0 -159.1,6.5 -236,19 -154.7,25.2 -301.3,74.8 -435.9,144.6 -134.2,69.6 -256.3,159.5 -362.3,265.5 -106,106 -195.8,228.1 -265.5,362.3 -69.8,134.5 -119.4,281.2 -144.6,435.9 -12.5,76.9 -19,155.7 -19,236 0,80.4 6.5,159.3 19.1,236.1 25.1,154.6 74.6,301 144.3,435.4 69.7,134.4 159.6,256.7 265.7,362.8 106,106 228.1,195.8 362.3,265.5 134.6,69.8 281.2,119.4 435.9,144.6 76.9,12.5 155.7,19 236,19 80.4,0 159.3,-6.5 236.1,-19.1 154.6,-25.1 301.1,-74.6 435.4,-144.3 134.4,-69.7 256.7,-159.6 362.8,-265.7 106.1,-106.1 196,-228.4 265.7,-362.8 69.7,-134.4 119.2,-280.8 144.3,-435.4 12.6,-76.8 19.1,-155.7 19.1,-236.1 v 0 c 0,-80.3 -6.5,-159.1 -19,-236 -25.2,-154.7 -74.8,-301.4 -144.6,-435.9 -69.7,-134.2 -159.5,-256.3 -265.5,-362.3 -106.1,-106.1 -228.4,-196 -362.8,-265.7 -134.3,-69.7 -280.8,-119.2 -435.3,-144.4 -76.9,-12.5 -155.8,-19 -236.2,-19"/></clipPath><clipPath id="clipPath48" clipPathUnits="userSpaceOnUse"><path id="path46" d="m 15347,13460.1 v 0 c -80.3,0 -159.1,6.5 -236,19 -154.7,25.2 -301.4,74.8 -435.9,144.6 -134.2,69.6 -256.3,159.5 -362.3,265.5 -106,106 -195.8,228.1 -265.5,362.3 -69.8,134.5 -119.4,281.2 -144.6,435.9 -12.5,76.9 -19,155.7 -19,236 0,80.4 6.5,159.3 19,236.1 25.2,154.6 74.7,301 144.4,435.4 69.7,134.4 159.6,256.7 265.7,362.8 106,106 228.1,195.8 362.3,265.5 134.5,69.8 281.2,119.4 435.9,144.6 76.9,12.5 155.7,19 236,19 80.4,0 159.3,-6.5 236.1,-19.1 154.6,-25.1 301.1,-74.6 435.4,-144.3 134.4,-69.7 256.7,-159.6 362.8,-265.7 106.1,-106.1 196,-228.4 265.7,-362.8 69.7,-134.4 119.2,-280.8 144.3,-435.4 12.6,-76.8 19.1,-155.7 19.1,-236.1 v 0 c 0,-80.3 -6.5,-159.1 -19,-236 -25.2,-154.7 -74.8,-301.4 -144.6,-435.9 -69.7,-134.2 -159.5,-256.3 -265.5,-362.3 -106.1,-106.1 -228.4,-196 -362.8,-265.7 -134.3,-69.7 -280.8,-119.2 -435.4,-144.4 -76.8,-12.5 -155.7,-19 -236.1,-19"/></clipPath><style id="ee-google-fonts">@import url(https://fonts.googleapis.com/css?family=Montserrat:400,700);</style><path id="text-path-0" d="M 70.09066772460938 375.8195495605469 C 53.29985809326172 359.6796875 171.05113220214844 340.44793701171875 353.287353515625 337.75787353515625 C 488.2558288574219 335.7655029296875 658.5958251953125 342.8466491699219 835.8466186523438 366.97735595703125 C 992.3639168953084 388.2854275701928 1170.51171875 314.99441023184755 1170.51171875 318.6421203613281 C 1170.51171875 326.5018433411714 665.6786473592124 388.59159940279216 325.34265899658214 384.66173791287054 C 167.3921771079814 382.8378828481302 -69.67633056640622 423.93857316658995 -69.67633056640625 420.2908630371094" style="fill: none; stroke: red; stroke-width: 2;"/></defs>










<path d="M 188.25819396972656 717.7352294921875" style="fill: rgb(190, 144, 238); fill-opacity: 1; stroke: rgb(0, 0, 0); stroke-opacity: 1; stroke-width: 0; paint-order: fill;"/><path fill="#FFF33E" d="M1076.7,976.1c7.6-11.4,5.4-25.7,3.9-38.5c-0.6-5.3-7.8-5.4-8.3,0c-1.2,11.7-2.4,23.1-4.9,34.6&#10;&#9;&#9;&#9;C1066.1,977.9,1073.5,981,1076.7,976.1z" transform="matrix(0.2995883524417877, 0, 0, 0.2995883524417877, 633.6044845073498, 608.5348304450714)" style="fill: rgb(0, 0, 0);"/><g transform="matrix(0.07645186036825179, 0, 0, -0.07645186036825179, -263.5529871008239, 1870.5288652424304)" id="g-1"><g transform="matrix(1.0316699743270874, 0, 0, 1.0316699743270874, 122.66667956335004, -6348.000667403285)" id="g-2"><path id="path-1" style="fill: rgb(255, 255, 255); fill-opacity: 1; fill-rule: nonzero; stroke: none;" d="m 3634.88,15411 c -26.76,0 -48.46,21.7 -48.46,48.5 v 792 c 0,26.8 21.7,48.5 48.46,48.5 26.76,0 48.47,-21.7 48.47,-48.5 v -792 c 0,-26.8 -21.71,-48.5 -48.47,-48.5"/></g><g transform="matrix(1.0827699899673462, 0, 0, 1.0827699899673462, 122.66667956334823, -6348.000667403281)" id="g-3"><path id="path-2" style="fill: rgb(255, 255, 255); fill-opacity: 1; fill-rule: nonzero; stroke: none;" d="m 3806.57,14103.3 c -25.5,0 -46.18,20.6 -46.18,46.1 v 2104.4 c 0,25.5 20.68,46.2 46.18,46.2 25.5,0 46.18,-20.7 46.18,-46.2 v -2104.4 c 0,-25.5 -20.68,-46.1 -46.18,-46.1"/></g><g transform="matrix(1.0490200519561768, 0, 0, 1.0490200519561768, 122.66667956334823, -6348.000667403281)" id="g-4"><path id="path-3" style="fill: rgb(255, 255, 255); fill-opacity: 1; fill-rule: nonzero; stroke: none;" d="m 4283.26,15006.3 c -26.32,0 -47.66,21.3 -47.66,47.7 v 1198.3 c 0,26.4 21.34,47.7 47.66,47.7 26.32,0 47.66,-21.3 47.66,-47.7 V 15054 c 0,-26.4 -21.34,-47.7 -47.66,-47.7"/></g><g transform="matrix(1.0827699899673462, 0, 0, 1.0827699899673462, 122.66667956334823, -6348.000667403281)" id="g-5"><path id="path-4" style="fill: rgb(255, 255, 255); fill-opacity: 1; fill-rule: nonzero; stroke: none;" d="m 4493,14480.6 c -25.51,0 -46.17,20.7 -46.17,46.2 v 1727 c 0,25.5 20.66,46.2 46.17,46.2 25.5,0 46.18,-20.7 46.18,-46.2 v -1727 c 0,-25.5 -20.68,-46.2 -46.18,-46.2"/></g><g transform="matrix(1.1039700508117676, 0, 0, 1.1039700508117676, 122.66667956334823, -6348.000667403288)" id="g-6"><path id="path-5" style="fill: rgb(255, 255, 255); fill-opacity: 1; fill-rule: nonzero; stroke: none;" d="m 4743.3,13561.9 c -25.01,0 -45.29,20.3 -45.29,45.3 v 2647.5 c 0,25 20.28,45.3 45.29,45.3 25.02,0 45.29,-20.3 45.29,-45.3 v -2647.5 c 0,-25 -20.27,-45.3 -45.29,-45.3"/></g><g transform="matrix(1.1251800060272217, 0, 0, 1.1251800060272217, 122.66667956334823, -6348.0006674032775)" id="g-7"><path id="path-6" style="fill: rgb(255, 255, 255); fill-opacity: 1; fill-rule: nonzero; stroke: none;" d="m 4984.17,12971 c -24.54,0 -44.44,19.9 -44.44,44.5 v 3240.1 c 0,24.5 19.9,44.4 44.44,44.4 24.54,0 44.44,-19.9 44.44,-44.4 v -3240.1 c 0,-24.6 -19.9,-44.5 -44.44,-44.5"/></g><g transform="matrix(1.1039700508117676, 0, 0, 1.1039700508117676, 122.66667956334823, -6348.000667403288)" id="g-8"><path id="path-7" style="fill: rgb(255, 255, 255); fill-opacity: 1; fill-rule: nonzero; stroke: none;" d="m 5416.55,13718.5 c -25.01,0 -45.29,20.2 -45.29,45.2 v 2491 c 0,25 20.28,45.3 45.29,45.3 25.01,0 45.29,-20.3 45.29,-45.3 v -2491 c 0,-25 -20.28,-45.2 -45.29,-45.2"/></g><g transform="matrix(1.0663800239562988, 0, 0, 1.0663800239562988, 122.66667956335004, -6348.000667403288)" id="g-9"><path id="path-8" style="fill: rgb(255, 255, 255); fill-opacity: 1; fill-rule: nonzero; stroke: none;" d="m 5956.01,14526.3 c -25.89,0 -46.89,21 -46.89,46.9 v 1679.9 c 0,25.9 21,46.9 46.89,46.9 25.89,0 46.89,-21 46.89,-46.9 v -1679.9 c 0,-25.9 -21,-46.9 -46.89,-46.9"/></g><g transform="matrix(1.0316699743270874, 0, 0, 1.0316699743270874, 122.66667956335004, -6348.000667403285)" id="g-10"><path id="path-9" style="fill: rgb(255, 255, 255); fill-opacity: 1; fill-rule: nonzero; stroke: none;" d="m 6516.58,15685.2 c -26.76,0 -48.46,21.7 -48.46,48.5 v 517.8 c 0,26.8 21.7,48.5 48.46,48.5 26.77,0 48.47,-21.7 48.47,-48.5 v -517.8 c 0,-26.8 -21.7,-48.5 -48.47,-48.5"/></g><g transform="matrix(1.0663800239562988, 0, 0, 1.0663800239562988, 122.66667956335004, -6348.000667403288)" id="g-11"><path id="path-10" style="fill: rgb(255, 255, 255); fill-opacity: 1; fill-rule: nonzero; stroke: none;" d="m 6653,14526.3 c -25.9,0 -46.89,21 -46.89,46.9 v 1679.9 c 0,25.9 20.99,46.9 46.89,46.9 25.89,0 46.88,-21 46.88,-46.9 v -1679.9 c 0,-25.9 -20.99,-46.9 -46.88,-46.9"/></g><g transform="matrix(1.0962599515914917, 0, 0, 1.0962599515914917, 122.66667956335004, -6348.000667403285)" id="g126"><path id="path-11" style="fill: rgb(255, 255, 255); fill-opacity: 1; fill-rule: nonzero; stroke: none;" d="m 6810.61,13657.3 c -25.19,0 -45.61,20.5 -45.61,45.6 v 2551.5 c 0,25.2 20.42,45.6 45.61,45.6 25.19,0 45.61,-20.4 45.61,-45.6 v -2551.5 c 0,-25.1 -20.42,-45.6 -45.61,-45.6"/></g><g transform="matrix(1.0663800239562988, 0, 0, 1.0663800239562988, 122.66667956335004, -6348.000667403288)" id="g-12"><path id="path-12" style="fill: rgb(255, 255, 255); fill-opacity: 1; fill-rule: nonzero; stroke: none;" d="m 7349.97,14835.8 c -25.89,0 -46.89,21 -46.89,46.9 v 1370.4 c 0,25.9 21,46.9 46.89,46.9 25.89,0 46.89,-21 46.89,-46.9 v -1370.4 c 0,-25.9 -21,-46.9 -46.89,-46.9"/></g><g transform="matrix(1.0254000425338745, 0, 0, 1.0254000425338745, 122.6666795633464, -6348.000667403281)" id="g-13"><path id="path-13" style="fill: rgb(255, 255, 255); fill-opacity: 1; fill-rule: nonzero; stroke: none;" d="m 8006.07,15781 c -26.92,0 -48.76,21.9 -48.76,48.8 v 421.4 c 0,27 21.84,48.8 48.76,48.8 26.93,0 48.76,-21.8 48.76,-48.8 v -421.4 c 0,-26.9 -21.83,-48.8 -48.76,-48.8"/></g><g transform="matrix(1.0215500593185423, 0, 0, 1.0215500593185423, 122.66667956334823, -6348.0006674032775)" id="g-14"><path id="path-14" style="fill: rgb(255, 255, 255); fill-opacity: 1; fill-rule: nonzero; stroke: none;" d="m 8400.08,16040.6 c -27.03,0 -48.95,21.9 -48.95,48.9 v 161.6 c 0,27 21.92,48.9 48.95,48.9 27.03,0 48.94,-21.9 48.94,-48.9 v -161.6 c 0,-27 -21.91,-48.9 -48.94,-48.9"/></g><g transform="matrix(1.0254000425338745, 0, 0, 1.0254000425338745, 122.6666795633464, -6348.000667403281)" id="g-15"><path id="path-15" style="fill: rgb(255, 255, 255); fill-opacity: 1; fill-rule: nonzero; stroke: none;" d="m 8730.9,15643.1 c -26.93,0 -48.76,21.9 -48.76,48.8 v 559.3 c 0,27 21.83,48.8 48.76,48.8 26.93,0 48.76,-21.8 48.76,-48.8 v -559.3 c 0,-26.9 -21.83,-48.8 -48.76,-48.8"/></g><g transform="matrix(1.0538400411605837, 0, 0, 1.0538400411605837, 122.66667956334823, -6348.000667403285)" id="g-16"><path id="path-16" style="fill: rgb(255, 255, 255); fill-opacity: 1; fill-rule: nonzero; stroke: none;" d="m 8847.92,14818.4 c -26.21,0 -47.44,21.2 -47.44,47.4 v 1386.8 c 0,26.2 21.23,47.4 47.44,47.4 26.2,0 47.45,-21.2 47.45,-47.4 v -1386.8 c 0,-26.2 -21.25,-47.4 -47.45,-47.4"/></g><g transform="matrix(1.0663800239562988, 0, 0, 1.0663800239562988, 122.66667956335004, -6348.000667403288)" id="g-17"><path id="path-17" style="fill: rgb(255, 255, 255); fill-opacity: 1; fill-rule: nonzero; stroke: none;" d="m 9092.42,14526.3 c -25.89,0 -46.89,21 -46.89,46.9 v 1679.9 c 0,25.9 21,46.9 46.89,46.9 25.9,0 46.88,-21 46.88,-46.9 v -1679.9 c 0,-25.9 -20.98,-46.9 -46.88,-46.9"/></g><g transform="matrix(1.0663800239562988, 0, 0, 1.0663800239562988, 122.66667956335004, -6348.000667403288)" id="g-18"><path id="path-18" style="fill: rgb(255, 255, 255); fill-opacity: 1; fill-rule: nonzero; stroke: none;" d="m 9440.94,14526.3 c -25.88,0 -46.89,21 -46.89,46.9 v 1679.9 c 0,25.9 21.01,46.9 46.89,46.9 25.88,0 46.89,-21 46.89,-46.9 v -1679.9 c 0,-25.9 -21.01,-46.9 -46.89,-46.9"/></g><g transform="matrix(1.0866199731826782, 0, 0, 1.0866199731826782, 122.66667956334823, -6348.000667403285)" id="g-19"><path id="path-19" style="fill: rgb(255, 255, 255); fill-opacity: 1; fill-rule: nonzero; stroke: none;" d="m 9607.03,13937.5 c -25.4,0 -46.02,20.6 -46.02,46.1 V 16254 c 0,25.4 20.62,46 46.02,46 25.4,0 46.01,-20.6 46.01,-46 v -2270.4 c 0,-25.5 -20.61,-46.1 -46.01,-46.1"/></g><g transform="matrix(1.1078300476074219, 0, 0, 1.1078300476074219, 122.66667956334823, -6348.000667403285)" id="g-20"><path id="path-20" style="fill: rgb(255, 255, 255); fill-opacity: 1; fill-rule: nonzero; stroke: none;" d="m 9758.53,13018.2 c -24.91,0 -45.13,20.3 -45.13,45.2 v 3191.5 c 0,24.9 20.22,45.1 45.13,45.1 24.91,0 45.13,-20.2 45.13,-45.1 v -3191.5 c 0,-24.9 -20.22,-45.2 -45.13,-45.2"/></g><g transform="matrix(1.0663800239562988, 0, 0, 1.0663800239562988, 122.66667956335004, -6348.000667403288)" id="g-21"><path id="path-21" style="fill: rgb(255, 255, 255); fill-opacity: 1; fill-rule: nonzero; stroke: none;" d="m 10486.4,14467.4 c -25.9,0 -46.9,21 -46.9,46.9 v 1738.8 c 0,25.9 21,46.9 46.9,46.9 25.8,0 46.8,-21 46.8,-46.9 v -1738.8 c 0,-25.9 -21,-46.9 -46.8,-46.9"/></g><g transform="matrix(1.0866199731826782, 0, 0, 1.0866199731826782, 122.66667956334823, -6348.000667403285)" id="g-22"><path id="path-22" style="fill: rgb(255, 255, 255); fill-opacity: 1; fill-rule: nonzero; stroke: none;" d="m 10633.1,13706.2 c -25.5,0 -46.1,20.6 -46.1,46 V 16254 c 0,25.4 20.6,46 46.1,46 25.3,0 46,-20.6 46,-46 v -2501.8 c 0,-25.4 -20.7,-46 -46,-46"/></g><g transform="matrix(1.0769799947738647, 0, 0, 1.0769799947738647, 122.6666795633464, -6348.000667403285)" id="g-23"><path id="path-23" style="fill: rgb(255, 255, 255); fill-opacity: 1; fill-rule: nonzero; stroke: none;" d="m 11073.3,14179 c -25.7,0 -46.5,20.8 -46.5,46.5 v 2028.1 c 0,25.6 20.8,46.4 46.5,46.4 25.6,0 46.4,-20.8 46.4,-46.4 v -2028.1 c 0,-25.7 -20.8,-46.5 -46.4,-46.5"/></g><g transform="matrix(1.0538400411605837, 0, 0, 1.0538400411605837, 122.66667956334823, -6348.000667403285)" id="g178"><path id="path-24" style="fill: rgb(255, 255, 255); fill-opacity: 1; fill-rule: nonzero; stroke: none;" d="m 11669,14699.1 c -26.2,0 -47.5,21.2 -47.5,47.4 v 1506.1 c 0,26.2 21.3,47.4 47.5,47.4 26.2,0 47.4,-21.2 47.4,-47.4 v -1506.1 c 0,-26.2 -21.2,-47.4 -47.4,-47.4"/></g><g transform="matrix(1.0413099527359009, 0, 0, 1.0413099527359009, 122.6666795633464, -6348.000667403285)" id="g-24"><path id="path-25" style="fill: rgb(255, 255, 255); fill-opacity: 1; fill-rule: nonzero; stroke: none;" d="m 12166.3,15328.7 c -26.5,0 -48,21.5 -48,48 v 875.3 c 0,26.5 21.5,48 48,48 26.5,0 48,-21.5 48,-48 v -875.3 c 0,-26.5 -21.5,-48 -48,-48"/></g><g transform="matrix(1.0579700469970703, 0, 0, 1.0579700469970703, 122.66667956334823, -6348.000667403285)" id="g-25"><path id="path-26" style="fill: rgb(255, 255, 255); fill-opacity: 1; fill-rule: nonzero; stroke: none;" d="m 12325.9,14872.1 c -26.1,0 -47.2,21.1 -47.2,47.2 v 1333.4 c 0,26.1 21.1,47.3 47.2,47.3 26.2,0 47.3,-21.2 47.3,-47.3 v -1333.4 c 0,-26.1 -21.1,-47.2 -47.3,-47.2"/></g><g transform="matrix(1.0793399810791016, 0, 0, 1.0793399810791016, 122.66667956334823, -6348.000667403285)" id="g-26"><path id="path-27" style="fill: rgb(255, 255, 255); fill-opacity: 1; fill-rule: nonzero; stroke: none;" d="m 12426.3,14424.3 c -25.7,0 -46.4,20.8 -46.4,46.4 v 1783 c 0,25.6 20.7,46.3 46.4,46.3 25.5,0 46.3,-20.7 46.3,-46.3 v -1783 c 0,-25.6 -20.8,-46.4 -46.3,-46.4"/></g><g transform="matrix(1.0663800239562988, 0, 0, 1.0663800239562988, 122.66667956335004, -6348.000667403288)" id="g-27"><path id="path-28" style="fill: rgb(255, 255, 255); fill-opacity: 1; fill-rule: nonzero; stroke: none;" d="m 12925.8,14795.7 c -25.9,0 -46.9,21 -46.9,46.9 v 1410.5 c 0,25.9 21,46.9 46.9,46.9 25.9,0 46.9,-21 46.9,-46.9 v -1410.5 c 0,-25.9 -21,-46.9 -46.9,-46.9"/></g><g transform="matrix(1.082550048828125, 0, 0, 1.082550048828125, 122.66667956334823, -6348.000667403285)" id="g-28"><path id="path-29" style="fill: rgb(255, 255, 255); fill-opacity: 1; fill-rule: nonzero; stroke: none;" d="m 13076,14106.1 c -25.5,0 -46.2,20.7 -46.2,46.2 v 2101.5 c 0,25.5 20.7,46.2 46.2,46.2 25.5,0 46.2,-20.7 46.2,-46.2 v -2101.5 c 0,-25.5 -20.7,-46.2 -46.2,-46.2"/></g><g transform="matrix(1.1078300476074219, 0, 0, 1.1078300476074219, 122.66667956334823, -6348.000667403285)" id="g-29"><path id="path-30" style="fill: rgb(255, 255, 255); fill-opacity: 1; fill-rule: nonzero; stroke: none;" d="m 13113,13443.8 c -24.9,0 -45.1,20.2 -45.1,45.1 v 2766 c 0,24.9 20.2,45.1 45.1,45.1 24.9,0 45.1,-20.2 45.1,-45.1 v -2766 c 0,-24.9 -20.2,-45.1 -45.1,-45.1"/></g><g transform="matrix(1.0769799947738647, 0, 0, 1.0769799947738647, 122.6666795633464, -6348.000667403285)" id="g-30"><path id="path-31" style="fill: rgb(255, 255, 255); fill-opacity: 1; fill-rule: nonzero; stroke: none;" d="m 13833.7,14383.3 c -25.7,0 -46.5,20.8 -46.5,46.4 v 1823.9 c 0,25.6 20.8,46.4 46.5,46.4 25.7,0 46.4,-20.8 46.4,-46.4 v -1823.9 c 0,-25.6 -20.7,-46.4 -46.4,-46.4"/></g><g transform="matrix(1.0413099527359009, 0, 0, 1.0413099527359009, 122.6666795633464, -6348.000667403285)" id="g-31"><path id="path-32" style="fill: rgb(255, 255, 255); fill-opacity: 1; fill-rule: nonzero; stroke: none;" d="m 14664.5,15328.7 c -26.5,0 -48,21.5 -48,48 v 875.3 c 0,26.5 21.5,48 48,48 26.5,0 48,-21.5 48,-48 v -875.3 c 0,-26.5 -21.5,-48 -48,-48"/></g><g transform="matrix(1.0301899909973147, 0, 0, 1.0301899909973147, 122.66667956335004, -6348.000667403288)" id="g-32"><path id="path-33" style="fill: rgb(255, 255, 255); fill-opacity: 1; fill-rule: nonzero; stroke: none;" d="m 15183.5,15715.3 c -26.8,0 -48.6,21.7 -48.6,48.5 v 487.7 c 0,26.8 21.8,48.5 48.6,48.5 26.8,0 48.5,-21.7 48.5,-48.5 v -487.7 c 0,-26.8 -21.7,-48.5 -48.5,-48.5"/></g><g transform="matrix(1.0203100442886353, 0, 0, 1.0203100442886353, 122.66667956334823, -6348.000667403281)" id="g218"><path id="path-34" style="fill: rgb(255, 255, 255); fill-opacity: 1; fill-rule: nonzero; stroke: none;" d="m 15694.7,15960 c -27,0 -49,21.9 -49,49 v 242 c 0,27.1 22,49 49,49 27.1,0 49,-21.9 49,-49 v -242 c 0,-27.1 -21.9,-49 -49,-49"/></g><g transform="matrix(1.0413099527359009, 0, 0, 1.0413099527359009, 122.6666795633464, -6348.000667403285)" id="g222"><path id="path224" style="fill: rgb(255, 255, 255); fill-opacity: 1; fill-rule: nonzero; stroke: none;" d="m 16092,15328.7 c -26.6,0 -48,21.5 -48,48 v 875.3 c 0,26.5 21.4,48 48,48 26.5,0 48,-21.5 48,-48 v -875.3 c 0,-26.5 -21.5,-48 -48,-48"/></g><g transform="matrix(1.0538899898529053, 0, 0, 1.0538899898529053, 122.66667956334823, -6348.000667403285)" id="g226"><path id="path228" style="fill: rgb(255, 255, 255); fill-opacity: 1; fill-rule: nonzero; stroke: none;" d="m 16252.6,15362 c -26.2,0 -47.5,21.2 -47.5,47.4 v 476.7 c 0,26.2 21.3,47.4 47.5,47.4 26.1,0 47.4,-21.2 47.4,-47.4 v -476.7 c 0,-26.2 -21.3,-47.4 -47.4,-47.4"/></g><g transform="matrix(1.0766899585723877, 0, 0, 1.0766899585723877, 122.66667956334823, -6348.000667403288)" id="g230"><path id="path232" style="fill: rgb(255, 255, 255); fill-opacity: 1; fill-rule: nonzero; stroke: none;" d="m 16253.6,15124.3 c -25.7,0 -46.5,20.8 -46.5,46.4 v 229.4 c 0,25.6 20.8,46.4 46.5,46.4 25.6,0 46.4,-20.8 46.4,-46.4 v -229.4 c 0,-25.6 -20.8,-46.4 -46.4,-46.4"/></g><g transform="matrix(1.0611799955368042, 0, 0, 1.0611799955368042, 122.66667956335004, -6348.000667403285)" id="g234"><path id="path236" style="fill: rgb(255, 255, 255); fill-opacity: 1; fill-rule: nonzero; stroke: none;" d="m 15440.5,14671.2 c -26,0 -47.1,21.1 -47.1,47.2 v 1534.5 c 0,26 21.1,47.1 47.1,47.1 26,0 47.1,-21.1 47.1,-47.1 v -1534.5 c 0,-26.1 -21.1,-47.2 -47.1,-47.2"/></g></g><g transform="matrix(0.34636861085891724, -0.1892728805541992, 0.1892728805541992, 0.34636861085891724, 200.28231811523432, 1430.0831178256235)">
		<path d="M859.001,374.182v53.972c0,1.638,1.331,2.966,2.967,2.966c1.64,0,2.971-1.328,2.971-2.966v-53.972h13.102&#10;&#9;&#9;&#9;c0-35.977-16.072-52.062-16.072-52.062s-16.072,16.085-16.072,52.062H859.001z" style="fill: rgb(255, 255, 255);"/>
		<path d="M861.968,322.12c0,0,32.711,11.357,32.711,52.062h19.352C914.03,345.43,890.724,322.12,861.968,322.12z" style="fill: rgb(255, 255, 255);"/>
		<path d="M809.908,374.182h19.353c0-40.704,32.707-52.062,32.707-52.062C833.216,322.12,809.908,345.43,809.908,374.182z" style="fill: rgb(255, 255, 255);"/>
	</g><path id="path94" style="fill: rgb(255, 255, 255); fill-opacity: 1; fill-rule: nonzero; stroke: none;" d="m 14836.5,10549.6 c -26.4,1.7 -47,-11.5 -48.7,-37.8 -1.5,-23.5 -2.2,-50.5 -1.1,-75.3 1.1,-24.3 16.3,-46.3 40.2,-48.5 23.8,-2.2 46.7,16 48.5,40.2 1.9,24.3 2.4,48.6 2.3,73 0,29.4 -18.1,46.9 -41.2,48.4" transform="matrix(0.06006852164864541, 0, 0, -0.06006852164864541, -331.5469372566595, 1117.3186486812406)"/><path id="path96" style="fill: rgb(255, 255, 255); fill-opacity: 1; fill-rule: nonzero; stroke: none;" d="m 14832.1,10527.9 c -6.7,0 -12.4,-1.5 -16.2,-4.3 -3.8,-2.8 -5.9,-7.1 -6.2,-13.2 -1.2,-18.3 -2.4,-45.7 -1.2,-73 0.6,-12.8 7.8,-26.5 20.5,-27.7 5.9,-0.5 12,1.5 16.9,5.6 4.5,3.9 7.3,9.1 7.7,14.5 1.6,21.1 2.3,43.7 2.3,71.3 -0.1,16.1 -7.6,25.8 -20.8,26.7 -1,0 -2,0.1 -3,0.1 z m -1.3,-162 c -2,0 -4,0.2 -5.9,0.3 -33.2,3.2 -58.4,32.3 -60,69.3 -1.3,29.2 -0.1,58.3 1.1,77.7 1.2,18.9 9.7,35.1 24,45.6 12.8,9.4 29.3,13.8 47.9,12.6 36.2,-2.3 61.6,-31.2 61.7,-70.2 0,-28.8 -0.7,-52.5 -2.4,-74.7 -1.3,-17.2 -9.5,-33.1 -23.1,-44.6 -12.3,-10.3 -27.8,-16 -43.3,-16" transform="matrix(0.06006852164864541, 0, 0, -0.06006852164864541, -331.5469372566595, 1117.3186486812406)"/><path id="path98" style="fill: rgb(255, 255, 255); fill-opacity: 1; fill-rule: nonzero; stroke: none;" d="m 14430.6,10455.4 c -43.5,0 -64.1,-48.8 -45.4,-76.4 15.8,-23.2 32.5,-46 50.7,-67.5 15.9,-18.8 51.4,-22.5 73.6,-1.2 19,18.2 22.9,40.3 1.3,73 -31.4,47.3 -42,72.1 -80.2,72.1" transform="matrix(0.06006852164864541, 0, 0, -0.06006852164864541, -331.5469372566595, 1117.3186486812406)"/><path id="path100" style="fill: rgb(255, 255, 255); fill-opacity: 1; fill-rule: nonzero; stroke: none;" d="m 14430.6,10433.5 c -16.4,0 -24.1,-11.2 -26.7,-16.1 -4.8,-9.1 -5,-19.6 -0.6,-26.1 17.7,-26.1 33.4,-46.9 49.2,-65.6 3.8,-4.5 10.9,-7.6 18.6,-8 5.1,-0.3 15.1,0.5 23.3,8.4 7.7,7.3 17.2,16.4 -1.8,45.1 -4,6 -7.7,11.6 -11.1,16.9 -24.5,38 -31.1,45.4 -50.9,45.4 z m 42.2,-159.5 c -1.3,0 -2.7,0 -4,0.1 -19.9,1 -38,9.5 -49.6,23.3 -16.9,19.9 -33.4,42 -52,69.3 -13.5,19.9 -14.3,47.8 -1.9,71.2 13.1,24.6 37.5,39.3 65.3,39.3 45.4,0 63.1,-27.4 87.6,-65.4 3.4,-5.1 6.9,-10.6 10.8,-16.5 26,-39.2 24.5,-73.1 -4.3,-100.8 -13.8,-13.2 -32.5,-20.5 -51.9,-20.5" transform="matrix(0.06006852164864541, 0, 0, -0.06006852164864541, -331.5469372566595, 1117.3186486812406)"/><path id="path102" style="fill: rgb(255, 255, 255); fill-opacity: 1; fill-rule: nonzero; stroke: none;" d="m 14153.7,10123.4 c -38.6,0.8 -63.7,-42.8 -45.2,-76 5.6,-10.1 17.8,-18.5 29.7,-20.5 59.1,-10 70,-12.5 87.5,-12.3 36,-2.3 52.8,15.3 52.6,56.5 -0.1,35.9 -44,39.9 -124.6,52.3" transform="matrix(0.06006852164864541, 0, 0, -0.06006852164864541, -331.5469372566595, 1117.3186486812406)"/><path id="path104" style="fill: rgb(255, 255, 255); fill-opacity: 1; fill-rule: nonzero; stroke: none;" d="m 14226.3,10036.4 h 0.8 c 10.6,-0.6 18.1,0.9 22,4.5 4.8,4.6 7.4,15.3 7.4,30.1 -0.1,14.1 -31,19.4 -90.1,28.3 l -14.4,2.2 c -13.4,-0.3 -20.7,-9.9 -23.3,-14.1 -5.6,-9.5 -6.1,-20.5 -1.1,-29.4 2.4,-4.2 9,-8.7 14.2,-9.6 l 26.2,-4.4 c 37.1,-6.3 45.3,-7.4 57.5,-7.6 z m 5.2,-43.86 c -2.1,0 -4.2,0.06 -6.4,0.19 -16.4,-0.66 -27.6,1.9 -64.5,8.17 l -26,4.4 c -18.3,3.1 -36.4,15.7 -45.2,31.4 -12.5,22.5 -11.8,50.5 1.9,73.2 13.6,22.7 37.4,36 62.9,35.3 l 2.8,-0.2 15.9,-2.4 c 73.8,-11.2 127.1,-19.2 127.3,-71.4 0.1,-28.3 -6.8,-48.6 -21.1,-62.1 -11.7,-10.99 -27.7,-16.56 -47.6,-16.56" transform="matrix(0.06006852164864541, 0, 0, -0.06006852164864541, -331.5469372566595, 1117.3186486812406)"/><path id="path106" style="fill: rgb(255, 255, 255); fill-opacity: 1; fill-rule: nonzero; stroke: none;" d="m 14173.6,9734.86 c -10.9,-3.26 -11.5,-3.4 -43.4,-10.82 -24.9,-5.77 -40.5,-32.05 -34.5,-56.71 6.1,-25.05 31.8,-40.25 56.7,-34.44 8.9,2.08 40.6,10.44 47.7,12.26 38.8,12.06 65.2,20.07 50.4,69.71 -9.7,32.79 -52.5,27.56 -76.9,20" transform="matrix(0.06006852164864541, 0, 0, -0.06006852164864541, -331.5469372566595, 1117.3186486812406)"/><path id="path108" style="fill: rgb(255, 255, 255); fill-opacity: 1; fill-rule: nonzero; stroke: none;" d="m 14208.3,9718.67 c -8.3,0 -18.2,-1.58 -28.3,-4.69 l -0.1,-0.05 c -11.4,-3.42 -12.6,-3.71 -43.7,-10.93 -7.2,-1.66 -12.5,-5.58 -16,-11.28 -3.6,-5.87 -4.8,-12.88 -3.2,-19.23 3.1,-13.03 17.1,-21.44 30.5,-18.31 6.5,1.52 25.5,6.49 37.6,9.65 l 9.5,2.48 c 40.5,12.58 43.4,14.21 35,42.31 -1,3.5 -2.6,5.56 -5.5,7.09 -3.7,1.99 -9.2,2.96 -15.8,2.96 z m -66.6,-108.88 c -31.2,0 -59.6,21.12 -67.2,52.36 -4.3,17.63 -1.2,36.75 8.5,52.5 9.7,15.72 24.7,26.62 42.3,30.68 31.6,7.35 32,7.46 41.9,10.42 14.3,4.42 50.3,13.05 77.5,-1.48 13.2,-7.04 22.4,-18.52 26.8,-33.18 20.9,-70.16 -26.5,-84.86 -64.5,-96.67 l -10.8,-2.88 c -12.5,-3.26 -32.1,-8.36 -38.8,-9.93 -5.3,-1.23 -10.5,-1.82 -15.7,-1.82" transform="matrix(0.06006852164864541, 0, 0, -0.06006852164864541, -331.5469372566595, 1117.3186486812406)"/><path id="path110" style="fill: rgb(255, 255, 255); fill-opacity: 1; fill-rule: nonzero; stroke: none;" d="m 14397.7,9468.93 c -40,0 -53.7,-31.53 -90,-90.44 -13.5,-21.98 -4.1,-51.58 17.8,-64.95 22.1,-13.39 43.9,-2.46 61.8,16.08 14.9,15.36 49.1,75.5 51.8,84.39 8.7,29.14 -12.1,54.92 -41.4,54.92" transform="matrix(0.06006852164864541, 0, 0, -0.06006852164864541, -331.5469372566595, 1117.3186486812406)"/><path id="path112" style="fill: rgb(255, 255, 255); fill-opacity: 1; fill-rule: nonzero; stroke: none;" d="m 14397.7,9447.08 c -21.9,0 -31.7,-14.44 -59.3,-60.08 -3.7,-6.26 -7.8,-12.92 -12.1,-19.97 -3,-4.81 -3.8,-10.89 -2.3,-17.06 1.8,-7.28 6.6,-13.93 12.9,-17.77 3.9,-2.34 14.2,-8.6 34.7,12.61 11.8,12.22 43.3,66.96 46.7,76.04 1.9,6.33 1,12.93 -2.8,17.99 -3.9,5.24 -10.4,8.24 -17.8,8.24 z m -52.2,-161.27 c -10.7,0 -21.3,2.97 -31.3,9.03 -16.3,9.92 -28.2,26.27 -32.7,44.87 -4.2,17.54 -1.5,35.37 7.6,50.21 4.3,6.97 8.2,13.53 11.9,19.68 29.6,48.89 49.1,81.19 96.7,81.19 21.3,0 40.6,-9.41 52.8,-25.84 12.1,-16.14 15.5,-37 9.5,-57.19 -3.8,-12.73 -39.8,-75.55 -57,-93.33 -18.2,-18.92 -38.2,-28.62 -57.5,-28.62" transform="matrix(0.06006852164864541, 0, 0, -0.06006852164864541, -331.5469372566595, 1117.3186486812406)"/><path id="path114" style="fill: rgb(255, 255, 255); fill-opacity: 1; fill-rule: nonzero; stroke: none;" d="m 14761.3,9358.75 c -22.2,0 -43,-17.72 -42.8,-39.59 0.2,-27.53 -1.6,-55.04 -0.2,-82.53 2.8,-55.48 80.2,-53.77 83.9,-2.37 1,14.22 1.7,68.77 1.6,82.48 -0.3,23.13 -18.8,42.01 -42.5,42.01" transform="matrix(0.06006852164864541, 0, 0, -0.06006852164864541, -331.5469372566595, 1117.3186486812406)"/><path id="path116" style="fill: rgb(255, 255, 255); fill-opacity: 1; fill-rule: nonzero; stroke: none;" d="m 14761.3,9336.9 c -5.9,0 -11.9,-2.56 -16.1,-6.84 -1.8,-1.87 -4.9,-5.74 -4.9,-10.72 0.1,-11.13 -0.1,-22.29 -0.3,-33.46 -0.4,-16.64 -0.7,-32.37 0.1,-48.16 0.9,-18.32 14.1,-20.44 19.7,-20.5 2.5,0.1 19.3,0.36 20.6,18.61 1,13.37 1.6,67.51 1.5,80.72 -0.1,11.4 -9.2,20.35 -20.6,20.35 z m -1.2,-163.38 h -0.7 c -28.8,0.3 -60.8,19.83 -63,61.99 -0.8,17.35 -0.5,34.6 -0.1,51.29 0.2,10.7 0.4,21.41 0.3,32.14 -0.1,15.45 6.1,30.32 17.6,41.89 12.4,12.56 29.6,19.77 47.1,19.77 35.7,0 63.9,-27.94 64.3,-63.62 0.1,-14.48 -0.5,-69.36 -1.6,-84.25 -2.8,-39 -34.1,-59.21 -63.9,-59.21" transform="matrix(0.06006852164864541, 0, 0, -0.06006852164864541, -331.5469372566595, 1117.3186486812406)"/><path id="path118" style="fill: rgb(255, 255, 255); fill-opacity: 1; fill-rule: nonzero; stroke: none;" d="m 15130.3,9418.03 c -18.2,25.27 -39.7,27.63 -65.3,14.57 -22.8,-11.63 -30.4,-38.94 -18.9,-61.17 15.3,-29.41 23.6,-42.97 41.5,-70.9 33.3,-51.91 106.2,-9.01 79.6,44.36 -0.5,0.96 -32.4,66.86 -36.9,73.14" transform="matrix(0.06006852164864541, 0, 0, -0.06006852164864541, -331.5469372566595, 1117.3186486812406)"/><path id="path120" style="fill: rgb(255, 255, 255); fill-opacity: 1; fill-rule: nonzero; stroke: none;" d="m 15092.6,9418.57 c -5,0 -10.6,-1.84 -17.7,-5.43 -6.9,-3.54 -9.9,-9.02 -11.1,-12.99 -2,-6.08 -1.4,-12.69 1.7,-18.65 15.1,-29.08 23.1,-42.05 40.5,-69.16 10,-15.59 23.5,-15.49 32.9,-10.2 9,5.14 16.8,16.86 8.7,33.01 -21,43.37 -32.7,66.22 -35.2,70.39 -6.4,8.84 -12.3,13.03 -19.8,13.03 z m 34.5,-163.22 c -21,0 -42.8,9.89 -57.9,33.37 -17.8,27.76 -26.7,42.1 -42.5,72.66 -8.4,16.35 -10.1,34.86 -4.6,52.1 5.4,16.79 17.1,30.5 33,38.58 36.6,18.67 69.6,11.13 92.9,-21.25 1.6,-2.21 5.4,-7.4 38.4,-75.39 19.6,-39.48 1.7,-75.6 -25.9,-91.28 -9.9,-5.63 -21.5,-8.79 -33.4,-8.79" transform="matrix(0.06006852164864541, 0, 0, -0.06006852164864541, -331.5469372566595, 1117.3186486812406)"/><path id="path122" style="fill: rgb(255, 255, 255); fill-opacity: 1; fill-rule: nonzero; stroke: none;" d="m 15311.5,9718.74 c -35.1,-2.25 -62.4,-42.29 -29.5,-81.2 7.8,-7 6.7,-5.85 58.9,-25.08 23,-8.77 37.4,-17.97 57.2,-11.79 24.7,7.8 38.2,34.06 30.6,58.41 -7.4,23.39 -101.2,60.68 -117.2,59.66" transform="matrix(0.06006852164864541, 0, 0, -0.06006852164864541, -331.5469372566595, 1117.3186486812406)"/><path id="path124" style="fill: rgb(255, 255, 255); fill-opacity: 1; fill-rule: nonzero; stroke: none;" d="m 15297.7,9652.8 c 2.8,-2.27 5.7,-3.33 30.4,-12.35 l 20.4,-7.48 c 4.6,-1.79 8.8,-3.49 12.7,-5.11 16.5,-6.8 22.4,-8.79 30.4,-6.33 12.6,3.98 19.9,17.3 16.5,30.01 -10.2,13.91 -78.8,43.67 -95.9,45.34 -9.4,-0.84 -18,-6.78 -21.5,-14.94 -4.6,-10.9 1,-21.67 7,-29.14 z m 87.6,-76 c -15,0 -28,5.39 -40.8,10.66 -3.5,1.48 -7.3,3.03 -11.4,4.58 l -20,7.36 c -33.2,12.14 -36,13.13 -45.7,21.89 l -2.1,2.14 c -19.8,23.5 -25.2,51.07 -14.8,75.62 10,23.53 33.4,39.82 59.6,41.5 22,1.19 127.7,-37.63 139.4,-74.93 11.2,-35.98 -8.9,-74.46 -44.8,-85.79 -6.9,-2.14 -13.3,-3.03 -19.4,-3.03" transform="matrix(0.06006852164864541, 0, 0, -0.06006852164864541, -331.5469372566595, 1117.3186486812406)"/><path id="path126" style="fill: rgb(255, 255, 255); fill-opacity: 1; fill-rule: nonzero; stroke: none;" d="m 15458,10057.7 c -1.3,24.2 -22.6,42.8 -46.3,41.6 -40.4,-2.1 -80.4,-17.9 -109.6,-30.5 -36.2,-15.6 -18.1,-94.78 31.2,-84.75 46.6,9.49 70.9,19.05 94.7,29.45 17.8,7.8 31,25.9 30,44.2" transform="matrix(0.06006852164864541, 0, 0, -0.06006852164864541, -331.5469372566595, 1117.3186486812406)"/><path id="path128" style="fill: rgb(255, 255, 255); fill-opacity: 1; fill-rule: nonzero; stroke: none;" d="m 15414,10077.5 -1.2,-0.1 c -35.4,-1.8 -71.4,-15.5 -102.1,-28.7 -5.7,-2.4 -7.6,-14.6 -4,-26 1.9,-6.1 7.9,-20.2 22.3,-17.2 45.4,9.2 68.6,18.5 90.3,28 9.9,4.4 17.4,14.5 16.9,23 v 0 c -0.6,11.6 -10.7,21 -22.2,21 z m -89.1,-116.17 c -27.3,-0.01 -50.5,18.2 -59.9,48.37 -10.7,34.2 1.3,67.5 28.5,79.2 34.2,14.7 74.8,30 117,32.2 36.7,1.8 67.4,-26 69.3,-62.2 v 0 c 1.5,-26.8 -16.2,-53.6 -43,-65.38 -23.9,-10.51 -49.5,-20.77 -99.1,-30.88 -4.4,-0.89 -8.7,-1.31 -12.8,-1.31" transform="matrix(0.06006852164864541, 0, 0, -0.06006852164864541, -331.5469372566595, 1117.3186486812406)"/><path id="path130" style="fill: rgb(255, 255, 255); fill-opacity: 1; fill-rule: nonzero; stroke: none;" d="m 15170,10419.9 c -12,-11.3 -45.7,-46.6 -60.8,-68.7 -12.9,-18.7 -11.1,-42.8 6.8,-57.1 21.8,-17.3 46.8,-9.4 62.1,7.4 32.8,35.8 61.3,70.3 61.9,87.5 0.3,11 -3.9,22 -11.6,29.9 -15.7,16.3 -42,16.5 -58.4,1" transform="matrix(0.06006852164864541, 0, 0, -0.06006852164864541, -331.5469372566595, 1117.3186486812406)"/><path id="path132" style="fill: rgb(255, 255, 255); fill-opacity: 1; fill-rule: nonzero; stroke: none;" d="m 15198.8,10409.5 c -4.9,0 -9.9,-1.8 -13.8,-5.5 v 0 c -12.6,-11.8 -44.4,-45.6 -57.8,-65.1 -5.7,-8.3 -7.2,-20.1 2.4,-27.6 15,-11.9 28.6,0.8 32.4,4.9 48.7,53.2 55.5,69.4 56.2,73.9 0.1,4.7 -1.9,9.9 -5.5,13.6 -3.7,3.9 -8.8,5.8 -13.9,5.8 z m -56.1,-146.9 c -14,0 -28,4.7 -40.3,14.4 -26.1,20.7 -30.9,57.9 -11.3,86.6 16.7,24.2 52,61 63.9,72.2 25.2,23.8 65.2,23 89.1,-1.7 11.8,-12.2 18.2,-28.8 17.8,-45.7 -0.8,-21.1 -19.1,-48.7 -67.6,-101.7 -14.7,-15.9 -33.2,-24.1 -51.6,-24.1" transform="matrix(0.06006852164864541, 0, 0, -0.06006852164864541, -331.5469372566595, 1117.3186486812406)"/><path id="path134" style="fill: rgb(255, 255, 255); fill-opacity: 1; fill-rule: nonzero; stroke: none;" d="m 14046.4,6577.7 c -0.6,20.98 -20,31.41 -42,31.5 -29.7,0.11 -48.2,-10.64 -47.5,-35.27 3.3,-122.34 -3.4,-273.84 -3.4,-312.06 -4.7,-44.19 51.9,-64.13 80.3,-35.18 11.2,11.48 11.7,19.87 11.3,42.41 -1.1,41.73 4.9,176 1.3,308.6" transform="matrix(0.0600685216486454, 0, 0, -0.0600685216486454, -424.9763094652503, 1323.6561952279385)"/><path id="path136" style="fill: rgb(255, 255, 255); fill-opacity: 1; fill-rule: nonzero; stroke: none;" d="m 14004,6587.34 c -13.4,0 -20.8,-2.77 -23.4,-5.39 -0.5,-0.51 -2,-2.07 -1.9,-7.41 2.4,-89.05 -0.5,-195.11 -2.2,-258.46 -0.6,-24.68 -1.2,-43.76 -1.2,-54.25 l -0.1,-2.22 c -1.4,-13.14 7.4,-19.31 12.7,-21.83 8.6,-4.08 21.8,-4.47 30.3,4.21 4.8,4.89 5.4,5.52 5.1,26.79 -0.4,15.22 0.1,42.56 0.7,77.17 1.2,61.91 2.8,146.68 0.5,231.14 -0.3,9.9 -18.1,10.24 -20.2,10.25 z m -3.6,-396.12 c -10.4,0 -21.1,2.3 -31.2,7.02 -25.7,12.14 -40,36.86 -37.6,64.72 0.1,10.88 0.6,29.91 1.2,54.3 1.8,62.91 4.6,168.23 2.2,256.09 -0.5,19.7 7.5,32.16 14.3,39.15 12.2,12.41 30.5,18.25 55.2,18.55 36.7,-0.14 62.8,-21.82 63.7,-52.74 v -0.01 c 2.3,-85.46 0.7,-170.84 -0.5,-233.17 -0.6,-34.04 -1.1,-60.94 -0.7,-75.43 0.3,-22.32 0.6,-39.75 -17.6,-58.32 -13,-13.21 -30.7,-20.16 -49,-20.16" transform="matrix(0.0600685216486454, 0, 0, -0.0600685216486454, -424.9763094652503, 1323.6561952279385)"/><path id="path138" style="fill: rgb(255, 255, 255); fill-opacity: 1; fill-rule: nonzero; stroke: none;" d="m 13828.2,6117.67 c -72.3,2.2 -287.4,2.37 -307.9,-11.74 -31.7,-21.67 -11.1,-64.33 17.5,-65.23 162.1,-4.89 292.7,-1.97 308.7,8.95 32.6,22.5 11.7,67.09 -18.3,68.02" transform="matrix(0.0600685216486454, 0, 0, -0.0600685216486454, -424.9763094652503, 1323.6561952279385)"/><path id="path140" style="fill: rgb(255, 255, 255); fill-opacity: 1; fill-rule: nonzero; stroke: none;" d="m 13531,6086.99 v 0 z m 304.7,-18.4 z m -304,18.65 c -3.4,-2.52 -7,-6.58 -4.9,-13.57 1.7,-5.99 7,-10.98 11.7,-11.13 188.9,-5.67 281.3,0.46 296.6,5.81 2.7,2.05 7.9,6.78 5.4,15.35 -2,6.63 -7.7,11.96 -13,12.14 -100.2,3.02 -270.9,0.38 -295.8,-8.6 z m 148,-70.82 c -46.5,0 -96.4,1.04 -142.5,2.43 -23.8,0.76 -45.3,18.26 -52.4,42.55 -7,24.03 1.8,47.99 23.1,62.56 33.2,22.79 318,15.69 320.9,15.55 v 0 c 24.3,-0.75 46.3,-18.63 53.6,-43.48 7.3,-24.7 -1.7,-49.37 -23.5,-64.37 -17,-11.62 -92.2,-15.24 -179.2,-15.24" transform="matrix(0.0600685216486454, 0, 0, -0.0600685216486454, -424.9763094652503, 1323.6561952279385)"/><path id="path142" style="fill: rgb(255, 255, 255); fill-opacity: 1; fill-rule: nonzero; stroke: none;" d="m 14481,6121.93 c -92.8,-1.35 -201.9,2.84 -305.8,-0.59 -26.6,-0.85 -42.6,-18.29 -43.1,-38.13 -0.6,-20.33 18.1,-40.77 41.1,-40.02 107.3,3.51 319.1,-9.33 334.5,3.92 8.3,7.09 13.1,17.17 13.4,27.6 0.6,20.65 0,47.8 -40.1,47.22" transform="matrix(0.0600685216486454, 0, 0, -0.0600685216486454, -424.9763094652503, 1323.6561952279385)"/><path id="path144" style="fill: rgb(255, 255, 255); fill-opacity: 1; fill-rule: nonzero; stroke: none;" d="m 14497.5,6066.17 z m -278.2,-0.5 c 34.2,0 72.6,-0.75 110.3,-1.48 62.1,-1.21 146.2,-2.86 165.8,1.44 2.4,2.79 3.8,6.19 3.9,9.66 0.1,5.45 0.5,18.17 -3,21.67 -0.8,0.77 -4.2,3.14 -15,3.12 -38.8,-0.57 -79.8,-0.17 -123.2,0.24 -59.9,0.61 -121.9,1.18 -182.1,-0.81 -13.2,-0.43 -21.8,-7.04 -22.1,-16.87 -0.1,-3.96 2,-8.58 5.6,-12.1 2.1,-2.14 6.5,-5.19 13,-5.52 14.1,0.47 29.9,0.65 46.8,0.65 z m 212,-46.51 c -25.7,0 -59,0.5 -102.5,1.33 -55.8,1.08 -113.5,2.2 -154.9,0.85 -16.7,-0.81 -33.1,6.11 -45.3,18.23 -12.1,12.07 -18.8,28.2 -18.4,44.25 0.9,33.2 27.9,58.18 64.3,59.36 61.2,2.01 123.6,1.44 184.1,0.84 43.1,-0.41 83.8,-0.81 122.1,-0.24 20.1,-0.02 35.9,-5.12 46.7,-16.12 16.6,-16.75 15.9,-40.69 15.6,-53.55 -0.5,-16.58 -8.1,-32.48 -21,-43.58 -9.7,-8.29 -26.3,-11.37 -90.7,-11.37" transform="matrix(0.0600685216486454, 0, 0, -0.0600685216486454, -424.9763094652503, 1323.6561952279385)"/><path id="path146" style="fill: rgb(255, 255, 255); fill-opacity: 1; fill-rule: nonzero; stroke: none;" d="m 14044.2,5891.8 c 1.1,64.26 -83.4,52.51 -84.6,11.67 -2.2,-82.43 3,-140.36 -1.2,-239.89 -3.2,-77.04 -6.7,-83.3 5.3,-98.46 23.8,-29.81 74.1,-15.19 77.9,18.06 6.6,58.14 2,285.45 2.6,308.62" transform="matrix(0.0600685216486454, 0, 0, -0.0600685216486454, -424.9763094652503, 1323.6561952279385)"/><path id="path148" style="fill: rgb(255, 255, 255); fill-opacity: 1; fill-rule: nonzero; stroke: none;" d="m 14002.8,5915.2 c -10.7,0 -21.1,-6 -21.3,-12.35 -1,-35.47 -0.5,-66.05 -0.1,-98.41 0.6,-41.81 1.2,-85.05 -1.2,-141.8 -0.6,-15.29 -1.3,-27.83 -1.8,-38.2 -2.1,-40.06 -1.7,-40.6 2.4,-45.76 6.7,-8.32 17.2,-8.96 24.8,-6.78 6.1,1.76 13.5,6.41 14.3,13.75 4.8,42.15 3.5,180.98 2.8,255.56 -0.3,25.98 -0.5,44.98 -0.3,51.04 0.2,15.14 -6,22.65 -19,22.93 z m -4.6,-388.08 c -20,0 -39,8.66 -51.6,24.34 -14.8,18.74 -14.2,30.7 -11.9,75.24 0.6,10.25 1.2,22.64 1.8,37.79 2.4,55.53 1.8,98.12 1.2,139.33 -0.4,32.83 -0.9,63.84 0.1,100.24 1,34.77 35.3,55.94 66.6,54.81 30.2,-0.66 62.4,-22.06 61.7,-67.42 v -0.19 c -0.2,-5.76 0,-24.26 0.3,-49.64 0.7,-80.82 2,-216.08 -3.1,-260.91 -2.7,-23.64 -20.6,-43.59 -45.6,-50.8 -6.5,-1.89 -13.1,-2.79 -19.5,-2.79" transform="matrix(0.0600685216486454, 0, 0, -0.0600685216486454, -424.9763094652503, 1323.6561952279385)"/><g transform="matrix(0.07033903896808624, 0, 0, -0.07033903896808624, -286.4337540180406, 1139.8752235114775)" id="g150"><path id="path152" style="fill: rgb(255, 255, 255); fill-opacity: 1; fill-rule: nonzero; stroke: none;" d="m 16298,7296.5 c -0.4,16.41 -6.5,27.75 -29.8,27.7 -16.4,-0.03 -24.2,-10.96 -24.3,-27.51 -0.3,-83 -0.3,-166.94 -0.3,-173.78 -0.1,-13.32 8.7,-22.23 18.7,-22.95 26.9,-1.92 34.7,4.39 36.4,18.07 1.3,9.85 -0.2,150.56 -0.7,178.47"/></g><g transform="matrix(0.07042074203491211, 0, 0, -0.07042074203491211, -286.4337540180406, 1139.8752235114775)" id="g154"><path id="path156" style="fill: rgb(255, 255, 255); fill-opacity: 1; fill-rule: nonzero; stroke: none;" d="m 16249.8,7297.09 c -3.3,-0.14 -6,0.33 -6,-8.92 -0.3,-58.23 -0.4,-116.94 -0.4,-149.06 0,-13.68 0,-22.57 0,-24.61 0,-2.81 1.1,-4.03 1.5,-4.17 10.1,-0.69 14.6,0.11 16.3,0.59 l 0.2,1.22 c 1,10.94 -0.3,144.19 -1,175.54 -0.2,8.44 -0.2,9.41 -10.6,9.41 z m 2.4,-224.35 c -4.1,0 -7.6,0.24 -10,0.43 -20.7,1.47 -36.2,19.36 -36,41.6 0,2.08 0,10.87 0,24.38 0,32.14 0.1,90.9 0.3,149.19 0.1,27.92 17,45.99 42.9,46.03 h 0.2 c 30.4,0 47.5,-16.31 48.1,-45.93 0.3,-15.29 2.3,-168.34 0.7,-181.04 -3.9,-30.48 -29.6,-34.66 -46.2,-34.66"/></g><g transform="matrix(0.06979784369468689, 0, 0, -0.06979784369468689, -286.4337540180406, 1139.87534558179)" id="g158"><path id="path160" style="fill: rgb(255, 255, 255); fill-opacity: 1; fill-rule: nonzero; stroke: none;" d="m 16274.2,7079.23 c -18.5,-0.51 -162.5,-2.19 -198.5,-3.84 -13.8,-0.63 -25.4,-11.09 -25.4,-25.4 0,-13.35 11.6,-25.11 25.4,-25.37 33.8,-0.62 157.3,-1.17 199,2.15 25.3,2.01 23.7,53.11 -0.5,52.46"/></g><g transform="matrix(0.0698542669415474, 0, 0, -0.0698542669415474, -286.43369298288434, 1139.8752235114775)" id="g162"><path id="path164" style="fill: rgb(255, 255, 255); fill-opacity: 1; fill-rule: nonzero; stroke: none;" d="m 16261.6,7054.73 v 0 z m -1.8,-0.05 c -7.1,-0.16 -23.3,-0.41 -43.9,-0.72 -50.8,-0.76 -127.6,-1.92 -152.4,-3.03 -3.6,-0.18 -7.4,-2.5 -7.4,-6.62 0,-2.92 3.1,-6.5 7,-6.57 33.4,-0.66 156.1,-1.16 197,2.09 1.5,1.95 1.6,11.06 -0.3,14.85 z m -126.5,-54.99 c -31.8,0 -59.4,0.25 -70.9,0.46 -24.2,0.45 -43.8,20.25 -43.8,44.14 0,23.65 19,43.05 43.3,44.17 25.3,1.15 102.4,2.31 153.5,3.07 22.3,0.35 39.5,0.61 45.1,0.75 l 1,0.03 c 20.3,0 35.7,-17.37 37,-41.7 1.5,-26.19 -13.5,-46.5 -35.4,-48.24 -26.6,-2.12 -82.7,-2.68 -129.8,-2.68"/></g><g transform="matrix(0.07167678326368332, 0, 0, -0.07167678326368332, -286.4338760883531, 1139.87534558179)" id="g166"><path id="path168" style="fill: rgb(255, 255, 255); fill-opacity: 1; fill-rule: nonzero; stroke: none;" d="m 16269.3,6890.36 c -1.5,0.05 -105.9,1.82 -172.6,0.19 -16,-0.38 -27.8,-7.83 -30.3,-20.98 -2.4,-13.5 6.8,-29.96 21,-30.23 81.6,-1.56 167.6,-1.96 182.8,-0.44 29.8,2.33 29.6,50.52 -0.9,51.46"/></g><g transform="matrix(0.07172603160142899, 0, 0, -0.07172603160142899, -286.4337540180406, 1139.87534558179)" id="g170"><path id="path172" style="fill: rgb(255, 255, 255); fill-opacity: 1; fill-rule: nonzero; stroke: none;" d="m 16154.7,6868.19 c -23.7,0 -48,-0.17 -68.7,-0.68 -2.7,-0.06 -11.6,-0.69 -12.6,-5.92 -0.7,-3.67 1.9,-8.19 3.3,-8.66 84.4,-1.64 167.2,-1.87 180.5,-0.53 5.4,0.43 5.7,6.2 5.7,7.97 -0.2,4.5 -1.9,6.84 -5.4,6.95 v 0 c -1.2,0.02 -50.5,0.87 -102.8,0.87 z m 51.2,-53.27 c -36.8,0 -85.7,0.57 -129.9,1.42 -11.1,0.21 -21.3,5.34 -28.7,14.43 -8.4,10.24 -12.2,24.54 -9.9,37.31 3.8,21.27 22.6,35.41 47.8,36.03 66.7,1.59 169.1,-0.13 173.5,-0.21 23,-0.72 40.2,-18.66 40.7,-42.67 0.6,-24.43 -15.7,-43.47 -38.9,-45.27 -7.2,-0.73 -27.7,-1.04 -54.6,-1.04"/></g><g transform="matrix(0.0703234151005745, 0, 0, -0.0703234151005745, -286.4337540180408, 1139.8752235114775)" id="g174"><path id="path176" style="fill: rgb(255, 255, 255); fill-opacity: 1; fill-rule: nonzero; stroke: none;" d="m 16247.9,6664.32 c 0.6,-12.45 9.9,-18.39 25.5,-18.61 18.6,-0.27 26.6,7.74 26.6,24.94 -0.2,52.54 -3.5,134.23 -4.2,208.74 -0.2,11.34 -7.4,20.31 -27.1,18.91 -13.1,-0.94 -22,-11.51 -22,-25.06 -0.1,-28.95 0.4,-193.71 1.2,-208.92"/></g><g transform="matrix(0.07040391862392426, 0, 0, -0.07040391862392426, -286.4337540180406, 1139.8752235114775)" id="g-35"><path id="path180" style="fill: rgb(255, 255, 255); fill-opacity: 1; fill-rule: nonzero; stroke: none;" d="m 16248,6657.72 c 1.1,-0.39 3.4,-0.9 7,-0.94 4.6,0.03 6.8,0.63 7.3,0.86 -0.1,0.18 0.4,1.74 0.4,5.35 -0.1,26.17 -0.9,60.17 -1.9,96.18 -0.9,36.89 -1.9,75.03 -2.3,112.19 v 0.12 c -1.2,0.3 -3.4,0.59 -7,0.36 -4.1,-0.3 -4.7,-4.21 -4.7,-6.49 0,-30.95 0.5,-192.87 1.2,-207.63 z m 7.6,-38.25 -1.1,0.01 c -30.9,0.44 -42.9,19.03 -43.7,36.28 -0.9,16.26 -1.3,185.89 -1.2,209.69 0,23.62 16.5,41.94 39.3,43.58 14.8,1.12 27,-2.36 35.5,-10.23 7.4,-6.8 11.3,-16.16 11.4,-27.07 0.4,-36.86 1.4,-74.86 2.3,-111.6 1,-36.23 1.8,-70.45 1.9,-97.04 0,-13.65 -3.8,-24.44 -11.6,-32.09 -7.8,-7.63 -18.8,-11.52 -32.8,-11.53"/></g><path id="path202" style="fill: rgb(255, 255, 255); fill-opacity: 1; fill-rule: nonzero; stroke: none;" d="m 15929.8,6102.49 -0.1,0.82 0.1,-0.82" transform="matrix(0.0600685253739357, 0, 0, -0.0600685253739357, -286.4337540180408, 1139.8752235114775)"/><g transform="matrix(0.06523200869560242, 0, 0, -0.06523200869560242, -286.4338760883531, 1139.87534558179)" id="g208"><path id="path210" style="fill: rgb(255, 255, 255); fill-opacity: 1; fill-rule: nonzero; stroke: none;" d="m 16299.4,5752.35 c 0,-0.9 -0.1,-1.81 -0.2,-2.72 0.5,4.1 0.8,6.63 0.2,2.72"/></g><g transform="matrix(0.07223964482545853, 0, 0, -0.07223964482545853, -175.36637854958553, 1401.5471191406252)" id="g228"><path id="path230" style="fill: rgb(0, 0, 0); fill-opacity: 1; fill-rule: nonzero; stroke: none;" d="m 16272.3,8911.7 c -9.7,10.88 -35.6,7.19 -48.1,8.06 -89.7,6.3 -985.7,-8.09 -1137.9,-16.34 -28.8,-1.57 -47.7,-20.64 -47.8,-48.84 -0.2,-74.79 113.8,-57.63 239.1,-54.17 235.5,6.51 480.6,11.41 713.1,11.4 76.6,0 226.1,4.04 270.2,11.4 39.1,6.51 30.7,66.79 11.4,88.49"/></g><path id="path-35" style="fill: rgb(255, 255, 255); fill-opacity: 1; fill-rule: nonzero; stroke: none;" d="m 14836.5,10549.6 c -26.4,1.7 -47,-11.5 -48.7,-37.8 -1.5,-23.5 -2.2,-50.5 -1.1,-75.3 1.1,-24.3 16.3,-46.3 40.2,-48.5 23.8,-2.2 46.7,16 48.5,40.2 1.9,24.3 2.4,48.6 2.3,73 0,29.4 -18.1,46.9 -41.2,48.4" transform="matrix(0.06006851792335511, 0, 0, -0.06006851792335511, -675.4712396945972, 1410.3663031799638)"/><path id="path-36" style="fill: rgb(255, 255, 255); fill-opacity: 1; fill-rule: nonzero; stroke: none;" d="m 14832.1,10527.9 c -6.7,0 -12.4,-1.5 -16.2,-4.3 -3.8,-2.8 -5.9,-7.1 -6.2,-13.2 -1.2,-18.3 -2.4,-45.7 -1.2,-73 0.6,-12.8 7.8,-26.5 20.5,-27.7 5.9,-0.5 12,1.5 16.9,5.6 4.5,3.9 7.3,9.1 7.7,14.5 1.6,21.1 2.3,43.7 2.3,71.3 -0.1,16.1 -7.6,25.8 -20.8,26.7 -1,0 -2,0.1 -3,0.1 z m -1.3,-162 c -2,0 -4,0.2 -5.9,0.3 -33.2,3.2 -58.4,32.3 -60,69.3 -1.3,29.2 -0.1,58.3 1.1,77.7 1.2,18.9 9.7,35.1 24,45.6 12.8,9.4 29.3,13.8 47.9,12.6 36.2,-2.3 61.6,-31.2 61.7,-70.2 0,-28.8 -0.7,-52.5 -2.4,-74.7 -1.3,-17.2 -9.5,-33.1 -23.1,-44.6 -12.3,-10.3 -27.8,-16 -43.3,-16" transform="matrix(0.06006851792335511, 0, 0, -0.06006851792335511, -675.4712396945972, 1410.3663031799638)"/><path id="path-37" style="fill: rgb(255, 255, 255); fill-opacity: 1; fill-rule: nonzero; stroke: none;" d="m 14430.6,10455.4 c -43.5,0 -64.1,-48.8 -45.4,-76.4 15.8,-23.2 32.5,-46 50.7,-67.5 15.9,-18.8 51.4,-22.5 73.6,-1.2 19,18.2 22.9,40.3 1.3,73 -31.4,47.3 -42,72.1 -80.2,72.1" transform="matrix(0.06006851792335511, 0, 0, -0.06006851792335511, -675.4712396945972, 1410.3663031799638)"/><path id="path-38" style="fill: rgb(255, 255, 255); fill-opacity: 1; fill-rule: nonzero; stroke: none;" d="m 14430.6,10433.5 c -16.4,0 -24.1,-11.2 -26.7,-16.1 -4.8,-9.1 -5,-19.6 -0.6,-26.1 17.7,-26.1 33.4,-46.9 49.2,-65.6 3.8,-4.5 10.9,-7.6 18.6,-8 5.1,-0.3 15.1,0.5 23.3,8.4 7.7,7.3 17.2,16.4 -1.8,45.1 -4,6 -7.7,11.6 -11.1,16.9 -24.5,38 -31.1,45.4 -50.9,45.4 z m 42.2,-159.5 c -1.3,0 -2.7,0 -4,0.1 -19.9,1 -38,9.5 -49.6,23.3 -16.9,19.9 -33.4,42 -52,69.3 -13.5,19.9 -14.3,47.8 -1.9,71.2 13.1,24.6 37.5,39.3 65.3,39.3 45.4,0 63.1,-27.4 87.6,-65.4 3.4,-5.1 6.9,-10.6 10.8,-16.5 26,-39.2 24.5,-73.1 -4.3,-100.8 -13.8,-13.2 -32.5,-20.5 -51.9,-20.5" transform="matrix(0.06006851792335511, 0, 0, -0.06006851792335511, -675.4712396945972, 1410.3663031799638)"/><path id="path-39" style="fill: rgb(255, 255, 255); fill-opacity: 1; fill-rule: nonzero; stroke: none;" d="m 14153.7,10123.4 c -38.6,0.8 -63.7,-42.8 -45.2,-76 5.6,-10.1 17.8,-18.5 29.7,-20.5 59.1,-10 70,-12.5 87.5,-12.3 36,-2.3 52.8,15.3 52.6,56.5 -0.1,35.9 -44,39.9 -124.6,52.3" transform="matrix(0.06006851792335511, 0, 0, -0.06006851792335511, -675.4712396945972, 1410.3663031799638)"/><path id="path-40" style="fill: rgb(255, 255, 255); fill-opacity: 1; fill-rule: nonzero; stroke: none;" d="m 14226.3,10036.4 h 0.8 c 10.6,-0.6 18.1,0.9 22,4.5 4.8,4.6 7.4,15.3 7.4,30.1 -0.1,14.1 -31,19.4 -90.1,28.3 l -14.4,2.2 c -13.4,-0.3 -20.7,-9.9 -23.3,-14.1 -5.6,-9.5 -6.1,-20.5 -1.1,-29.4 2.4,-4.2 9,-8.7 14.2,-9.6 l 26.2,-4.4 c 37.1,-6.3 45.3,-7.4 57.5,-7.6 z m 5.2,-43.86 c -2.1,0 -4.2,0.06 -6.4,0.19 -16.4,-0.66 -27.6,1.9 -64.5,8.17 l -26,4.4 c -18.3,3.1 -36.4,15.7 -45.2,31.4 -12.5,22.5 -11.8,50.5 1.9,73.2 13.6,22.7 37.4,36 62.9,35.3 l 2.8,-0.2 15.9,-2.4 c 73.8,-11.2 127.1,-19.2 127.3,-71.4 0.1,-28.3 -6.8,-48.6 -21.1,-62.1 -11.7,-10.99 -27.7,-16.56 -47.6,-16.56" transform="matrix(0.06006851792335511, 0, 0, -0.06006851792335511, -675.4712396945972, 1410.3663031799638)"/><path id="path-41" style="fill: rgb(255, 255, 255); fill-opacity: 1; fill-rule: nonzero; stroke: none;" d="m 14173.6,9734.86 c -10.9,-3.26 -11.5,-3.4 -43.4,-10.82 -24.9,-5.77 -40.5,-32.05 -34.5,-56.71 6.1,-25.05 31.8,-40.25 56.7,-34.44 8.9,2.08 40.6,10.44 47.7,12.26 38.8,12.06 65.2,20.07 50.4,69.71 -9.7,32.79 -52.5,27.56 -76.9,20" transform="matrix(0.06006851792335511, 0, 0, -0.06006851792335511, -675.4712396945972, 1410.3663031799638)"/><path id="path-42" style="fill: rgb(255, 255, 255); fill-opacity: 1; fill-rule: nonzero; stroke: none;" d="m 14208.3,9718.67 c -8.3,0 -18.2,-1.58 -28.3,-4.69 l -0.1,-0.05 c -11.4,-3.42 -12.6,-3.71 -43.7,-10.93 -7.2,-1.66 -12.5,-5.58 -16,-11.28 -3.6,-5.87 -4.8,-12.88 -3.2,-19.23 3.1,-13.03 17.1,-21.44 30.5,-18.31 6.5,1.52 25.5,6.49 37.6,9.65 l 9.5,2.48 c 40.5,12.58 43.4,14.21 35,42.31 -1,3.5 -2.6,5.56 -5.5,7.09 -3.7,1.99 -9.2,2.96 -15.8,2.96 z m -66.6,-108.88 c -31.2,0 -59.6,21.12 -67.2,52.36 -4.3,17.63 -1.2,36.75 8.5,52.5 9.7,15.72 24.7,26.62 42.3,30.68 31.6,7.35 32,7.46 41.9,10.42 14.3,4.42 50.3,13.05 77.5,-1.48 13.2,-7.04 22.4,-18.52 26.8,-33.18 20.9,-70.16 -26.5,-84.86 -64.5,-96.67 l -10.8,-2.88 c -12.5,-3.26 -32.1,-8.36 -38.8,-9.93 -5.3,-1.23 -10.5,-1.82 -15.7,-1.82" transform="matrix(0.06006851792335511, 0, 0, -0.06006851792335511, -675.4712396945972, 1410.3663031799638)"/><path id="path-43" style="fill: rgb(255, 255, 255); fill-opacity: 1; fill-rule: nonzero; stroke: none;" d="m 14397.7,9468.93 c -40,0 -53.7,-31.53 -90,-90.44 -13.5,-21.98 -4.1,-51.58 17.8,-64.95 22.1,-13.39 43.9,-2.46 61.8,16.08 14.9,15.36 49.1,75.5 51.8,84.39 8.7,29.14 -12.1,54.92 -41.4,54.92" transform="matrix(0.06006851792335511, 0, 0, -0.06006851792335511, -675.4712396945972, 1410.3663031799638)"/><path id="path-44" style="fill: rgb(255, 255, 255); fill-opacity: 1; fill-rule: nonzero; stroke: none;" d="m 14397.7,9447.08 c -21.9,0 -31.7,-14.44 -59.3,-60.08 -3.7,-6.26 -7.8,-12.92 -12.1,-19.97 -3,-4.81 -3.8,-10.89 -2.3,-17.06 1.8,-7.28 6.6,-13.93 12.9,-17.77 3.9,-2.34 14.2,-8.6 34.7,12.61 11.8,12.22 43.3,66.96 46.7,76.04 1.9,6.33 1,12.93 -2.8,17.99 -3.9,5.24 -10.4,8.24 -17.8,8.24 z m -52.2,-161.27 c -10.7,0 -21.3,2.97 -31.3,9.03 -16.3,9.92 -28.2,26.27 -32.7,44.87 -4.2,17.54 -1.5,35.37 7.6,50.21 4.3,6.97 8.2,13.53 11.9,19.68 29.6,48.89 49.1,81.19 96.7,81.19 21.3,0 40.6,-9.41 52.8,-25.84 12.1,-16.14 15.5,-37 9.5,-57.19 -3.8,-12.73 -39.8,-75.55 -57,-93.33 -18.2,-18.92 -38.2,-28.62 -57.5,-28.62" transform="matrix(0.06006851792335511, 0, 0, -0.06006851792335511, -675.4712396945972, 1410.3663031799638)"/><path id="path-45" style="fill: rgb(255, 255, 255); fill-opacity: 1; fill-rule: nonzero; stroke: none;" d="m 14761.3,9358.75 c -22.2,0 -43,-17.72 -42.8,-39.59 0.2,-27.53 -1.6,-55.04 -0.2,-82.53 2.8,-55.48 80.2,-53.77 83.9,-2.37 1,14.22 1.7,68.77 1.6,82.48 -0.3,23.13 -18.8,42.01 -42.5,42.01" transform="matrix(0.06006851792335511, 0, 0, -0.06006851792335511, -675.4712396945972, 1410.3663031799638)"/><path id="path-46" style="fill: rgb(255, 255, 255); fill-opacity: 1; fill-rule: nonzero; stroke: none;" d="m 14761.3,9336.9 c -5.9,0 -11.9,-2.56 -16.1,-6.84 -1.8,-1.87 -4.9,-5.74 -4.9,-10.72 0.1,-11.13 -0.1,-22.29 -0.3,-33.46 -0.4,-16.64 -0.7,-32.37 0.1,-48.16 0.9,-18.32 14.1,-20.44 19.7,-20.5 2.5,0.1 19.3,0.36 20.6,18.61 1,13.37 1.6,67.51 1.5,80.72 -0.1,11.4 -9.2,20.35 -20.6,20.35 z m -1.2,-163.38 h -0.7 c -28.8,0.3 -60.8,19.83 -63,61.99 -0.8,17.35 -0.5,34.6 -0.1,51.29 0.2,10.7 0.4,21.41 0.3,32.14 -0.1,15.45 6.1,30.32 17.6,41.89 12.4,12.56 29.6,19.77 47.1,19.77 35.7,0 63.9,-27.94 64.3,-63.62 0.1,-14.48 -0.5,-69.36 -1.6,-84.25 -2.8,-39 -34.1,-59.21 -63.9,-59.21" transform="matrix(0.06006851792335511, 0, 0, -0.06006851792335511, -675.4712396945972, 1410.3663031799638)"/><path id="path-47" style="fill: rgb(255, 255, 255); fill-opacity: 1; fill-rule: nonzero; stroke: none;" d="m 15130.3,9418.03 c -18.2,25.27 -39.7,27.63 -65.3,14.57 -22.8,-11.63 -30.4,-38.94 -18.9,-61.17 15.3,-29.41 23.6,-42.97 41.5,-70.9 33.3,-51.91 106.2,-9.01 79.6,44.36 -0.5,0.96 -32.4,66.86 -36.9,73.14" transform="matrix(0.06006851792335511, 0, 0, -0.06006851792335511, -675.4712396945972, 1410.3663031799638)"/><path id="path-48" style="fill: rgb(255, 255, 255); fill-opacity: 1; fill-rule: nonzero; stroke: none;" d="m 15092.6,9418.57 c -5,0 -10.6,-1.84 -17.7,-5.43 -6.9,-3.54 -9.9,-9.02 -11.1,-12.99 -2,-6.08 -1.4,-12.69 1.7,-18.65 15.1,-29.08 23.1,-42.05 40.5,-69.16 10,-15.59 23.5,-15.49 32.9,-10.2 9,5.14 16.8,16.86 8.7,33.01 -21,43.37 -32.7,66.22 -35.2,70.39 -6.4,8.84 -12.3,13.03 -19.8,13.03 z m 34.5,-163.22 c -21,0 -42.8,9.89 -57.9,33.37 -17.8,27.76 -26.7,42.1 -42.5,72.66 -8.4,16.35 -10.1,34.86 -4.6,52.1 5.4,16.79 17.1,30.5 33,38.58 36.6,18.67 69.6,11.13 92.9,-21.25 1.6,-2.21 5.4,-7.4 38.4,-75.39 19.6,-39.48 1.7,-75.6 -25.9,-91.28 -9.9,-5.63 -21.5,-8.79 -33.4,-8.79" transform="matrix(0.06006851792335511, 0, 0, -0.06006851792335511, -675.4712396945972, 1410.3663031799638)"/><path id="path-49" style="fill: rgb(255, 255, 255); fill-opacity: 1; fill-rule: nonzero; stroke: none;" d="m 15311.5,9718.74 c -35.1,-2.25 -62.4,-42.29 -29.5,-81.2 7.8,-7 6.7,-5.85 58.9,-25.08 23,-8.77 37.4,-17.97 57.2,-11.79 24.7,7.8 38.2,34.06 30.6,58.41 -7.4,23.39 -101.2,60.68 -117.2,59.66" transform="matrix(0.06006851792335511, 0, 0, -0.06006851792335511, -675.4712396945972, 1410.3663031799638)"/><path id="path-50" style="fill: rgb(255, 255, 255); fill-opacity: 1; fill-rule: nonzero; stroke: none;" d="m 15297.7,9652.8 c 2.8,-2.27 5.7,-3.33 30.4,-12.35 l 20.4,-7.48 c 4.6,-1.79 8.8,-3.49 12.7,-5.11 16.5,-6.8 22.4,-8.79 30.4,-6.33 12.6,3.98 19.9,17.3 16.5,30.01 -10.2,13.91 -78.8,43.67 -95.9,45.34 -9.4,-0.84 -18,-6.78 -21.5,-14.94 -4.6,-10.9 1,-21.67 7,-29.14 z m 87.6,-76 c -15,0 -28,5.39 -40.8,10.66 -3.5,1.48 -7.3,3.03 -11.4,4.58 l -20,7.36 c -33.2,12.14 -36,13.13 -45.7,21.89 l -2.1,2.14 c -19.8,23.5 -25.2,51.07 -14.8,75.62 10,23.53 33.4,39.82 59.6,41.5 22,1.19 127.7,-37.63 139.4,-74.93 11.2,-35.98 -8.9,-74.46 -44.8,-85.79 -6.9,-2.14 -13.3,-3.03 -19.4,-3.03" transform="matrix(0.06006851792335511, 0, 0, -0.06006851792335511, -675.4712396945972, 1410.3663031799638)"/><path id="path-51" style="fill: rgb(255, 255, 255); fill-opacity: 1; fill-rule: nonzero; stroke: none;" d="m 15458,10057.7 c -1.3,24.2 -22.6,42.8 -46.3,41.6 -40.4,-2.1 -80.4,-17.9 -109.6,-30.5 -36.2,-15.6 -18.1,-94.78 31.2,-84.75 46.6,9.49 70.9,19.05 94.7,29.45 17.8,7.8 31,25.9 30,44.2" transform="matrix(0.06006851792335511, 0, 0, -0.06006851792335511, -675.4712396945972, 1410.3663031799638)"/><path id="path-52" style="fill: rgb(255, 255, 255); fill-opacity: 1; fill-rule: nonzero; stroke: none;" d="m 15414,10077.5 -1.2,-0.1 c -35.4,-1.8 -71.4,-15.5 -102.1,-28.7 -5.7,-2.4 -7.6,-14.6 -4,-26 1.9,-6.1 7.9,-20.2 22.3,-17.2 45.4,9.2 68.6,18.5 90.3,28 9.9,4.4 17.4,14.5 16.9,23 v 0 c -0.6,11.6 -10.7,21 -22.2,21 z m -89.1,-116.17 c -27.3,-0.01 -50.5,18.2 -59.9,48.37 -10.7,34.2 1.3,67.5 28.5,79.2 34.2,14.7 74.8,30 117,32.2 36.7,1.8 67.4,-26 69.3,-62.2 v 0 c 1.5,-26.8 -16.2,-53.6 -43,-65.38 -23.9,-10.51 -49.5,-20.77 -99.1,-30.88 -4.4,-0.89 -8.7,-1.31 -12.8,-1.31" transform="matrix(0.06006851792335511, 0, 0, -0.06006851792335511, -675.4712396945972, 1410.3663031799638)"/><path id="path-53" style="fill: rgb(255, 255, 255); fill-opacity: 1; fill-rule: nonzero; stroke: none;" d="m 15170,10419.9 c -12,-11.3 -45.7,-46.6 -60.8,-68.7 -12.9,-18.7 -11.1,-42.8 6.8,-57.1 21.8,-17.3 46.8,-9.4 62.1,7.4 32.8,35.8 61.3,70.3 61.9,87.5 0.3,11 -3.9,22 -11.6,29.9 -15.7,16.3 -42,16.5 -58.4,1" transform="matrix(0.06006851792335511, 0, 0, -0.06006851792335511, -675.4712396945972, 1410.3663031799638)"/><path id="path-54" style="fill: rgb(255, 255, 255); fill-opacity: 1; fill-rule: nonzero; stroke: none;" d="m 15198.8,10409.5 c -4.9,0 -9.9,-1.8 -13.8,-5.5 v 0 c -12.6,-11.8 -44.4,-45.6 -57.8,-65.1 -5.7,-8.3 -7.2,-20.1 2.4,-27.6 15,-11.9 28.6,0.8 32.4,4.9 48.7,53.2 55.5,69.4 56.2,73.9 0.1,4.7 -1.9,9.9 -5.5,13.6 -3.7,3.9 -8.8,5.8 -13.9,5.8 z m -56.1,-146.9 c -14,0 -28,4.7 -40.3,14.4 -26.1,20.7 -30.9,57.9 -11.3,86.6 16.7,24.2 52,61 63.9,72.2 25.2,23.8 65.2,23 89.1,-1.7 11.8,-12.2 18.2,-28.8 17.8,-45.7 -0.8,-21.1 -19.1,-48.7 -67.6,-101.7 -14.7,-15.9 -33.2,-24.1 -51.6,-24.1" transform="matrix(0.06006851792335511, 0, 0, -0.06006851792335511, -675.4712396945972, 1410.3663031799638)"/><path id="path26" style="fill: rgb(255, 255, 255); fill-opacity: 1; fill-rule: nonzero; stroke: none;" d="M 9142.03,8972.3 H 10859 V 7701.2 c 0,-473.3 -385.1,-858.5 -858.5,-858.5 -473.36,0 -858.47,385.2 -858.47,858.5 z m 237.12,2076.2 v -1178 c 0,-59.7 48.39,-108 108.04,-108 59.65,0 108.04,48.3 108.04,108 v 1341 c 90.91,49.3 190.73,81.9 297.54,95.5 V 9870.5 c 0,-59.7 48.4,-108 108.03,-108 59.7,0 108.1,48.3 108.1,108 V 11307 c 106.1,-13.6 205.4,-46.1 295.9,-94.9 V 9870.5 c 0,-59.7 48.4,-108 108,-108 59.7,0 108.1,48.3 108.1,108 v 1179.2 c 146.6,-154.1 238.1,-361.3 238.1,-590.3 V 9188.3 H 9142.03 v 1271.1 c 0,228.5 91.1,435.1 237.12,589.1 z m 621.35,-4421.8 c 592.5,0 1074.6,482 1074.6,1074.5 v 2758.2 c 0,385.4 -204.7,723.1 -510.3,912.8 -4,2.2 -7.3,5.2 -11.5,7 -161.5,97.4 -349.8,154.5 -551.6,154.7 -0.3,0 -0.6,0.2 -0.9,0.2 -0.2,0 -0.4,-0.1 -0.6,-0.1 -592.38,-0.2 -1074.26,-482.1 -1074.26,-1074.6 V 7701.2 c 0,-592.5 482.05,-1074.5 1074.56,-1074.5" transform="matrix(0.04934078827500343, 0, 0, -0.04934078827500343, 225.8063731025261, 1295.435506963482)"/><path id="path28" style="fill: rgb(255, 255, 255); fill-opacity: 1; fill-rule: nonzero; stroke: none;" d="m 11564.3,9399.6 c 50.9,-30.7 117.4,-14.2 148.3,37 184,306 281.2,659.6 281.2,1022.5 0,1099.9 -894.1,1994.6 -1993,1994.6 -1099.83,0 -1994.56,-894.7 -1994.56,-1994.6 0,-361.4 97.78,-716.1 282.63,-1025.6 20.25,-33.8 56.13,-52.6 92.84,-52.6 18.86,0 37.99,4.9 55.37,15.3 51.2,30.6 67.94,96.9 37.34,148.2 -164.95,276 -252.09,592.3 -252.09,914.7 0,980.7 797.8,1778.6 1778.47,1778.6 979.8,0 1776.9,-797.9 1776.9,-1778.6 0,-323.7 -86.6,-638.7 -250.4,-911.2 -30.7,-51.2 -14.1,-117.5 37,-148.3" transform="matrix(0.04934078827500343, 0, 0, -0.04934078827500343, 225.8063731025261, 1295.435506963482)"/><path id="path30" style="fill: rgb(255, 255, 255); fill-opacity: 1; fill-rule: nonzero; stroke: none;" d="m 10000.8,13373.4 c -1606.92,0 -2914.2,-1307.3 -2914.2,-2914.3 0,-943.1 460.81,-1831.9 1232.66,-2377.5 48.82,-34.3 116.19,-22.8 150.59,25.9 34.47,48.7 22.87,116.1 -25.82,150.6 -714.65,505.1 -1141.33,1328 -1141.33,2201 0,1487.8 1210.35,2698.2 2698.1,2698.2 1486.9,0 2696.5,-1210.4 2696.5,-2698.2 0,-873.8 -426,-1696.6 -1139.7,-2201 -48.7,-34.5 -60.3,-101.9 -25.8,-150.6 21,-29.8 54.4,-45.7 88.3,-45.7 21.6,0 43.3,6.5 62.3,19.8 770.8,544.9 1231,1433.7 1231,2377.5 0,1607 -1306.6,2914.3 -2912.6,2914.3" transform="matrix(0.04934078827500343, 0, 0, -0.04934078827500343, 225.8063731025261, 1295.435506963482)"/><path class="st0" d="M330.9,196H223.2h-18.6h-48.9c0,0-5.8,0.7-3.7,6.1l39.7,33.6v99.5c0,7.2,5.8,13,13,13h126.3&#10;&#9;&#9;c7.2,0,13-5.8,13-13V209C343.8,201.8,338,196,330.9,196z M225.5,286.8c-8.1,0-14.7-6.6-14.7-14.7c0-8.1,6.6-14.7,14.7-14.7&#10;&#9;&#9;c8.1,0,14.7,6.6,14.7,14.7C240.2,280.2,233.6,286.8,225.5,286.8z M267.7,286.8c-8.1,0-14.7-6.6-14.7-14.7c0-8.1,6.6-14.7,14.7-14.7&#10;&#9;&#9;c8.1,0,14.7,6.6,14.7,14.7C282.4,280.2,275.8,286.8,267.7,286.8z M310,286.8c-8.1,0-14.7-6.6-14.7-14.7c0-8.1,6.6-14.7,14.7-14.7&#10;&#9;&#9;c8.1,0,14.7,6.6,14.7,14.7C324.7,280.2,318.1,286.8,310,286.8z" style="fill: rgb(255, 255, 255);" transform="matrix(0.7497223019599916, 0, 0, 0.7497223019599916, 745.0927211574107, 712.3635385232254)"/></svg>