<?xml version="1.0" encoding="UTF-8"?>
<svg width="863px" height="248px" viewBox="0 0 863 248" version="1.1" xmlns="http://www.w3.org/2000/svg" xmlns:xlink="http://www.w3.org/1999/xlink">
    <title>spotify-1</title>
    <g id="🚀-Application-" stroke="none" stroke-width="1" fill="none" fill-rule="evenodd">
        <g id="spotify-1" fill="#FFFFFF" fill-rule="nonzero">
            <path d="M0,123.997758 C0,192.486567 57.9437962,248 129.417679,248 C200.89474,248 258.835357,192.486652 258.835357,123.997758 C258.835357,55.5207097 200.897743,0.00592285886 129.416089,0.00592285886 L129.417679,0 C57.9437962,0 0,55.5163099 0,123.997758 Z M188.767805,178.840385 C186.443497,182.49335 181.476525,183.6379 177.676299,181.412344 C147.285708,163.615676 109.033533,159.595493 63.9847009,169.455615 C59.6436672,170.40928 55.3164981,167.801699 54.3275192,163.643767 C53.3337716,159.484482 56.0428444,155.338481 60.3947401,154.390908 C109.693471,143.592013 151.980686,148.240019 186.092643,168.211815 C189.89437,170.447778 191.099707,175.200873 188.766215,178.843346 L188.767805,178.840385 L188.767805,178.840385 Z M204.608246,145.081697 C201.681225,149.631891 195.471738,151.0593 190.728896,148.265149 C155.949318,127.781026 102.915269,121.84776 61.7686604,133.814981 C56.4322896,135.359324 50.796196,132.477853 49.1765985,127.373872 C47.5693643,122.260922 50.5783363,116.87112 55.9053464,115.31637 C102.906085,101.652419 161.335054,108.271129 201.284009,131.792325 C206.028529,134.590875 207.527496,140.543349 204.606657,145.083135 L204.608246,145.081697 Z M205.968214,109.923607 C164.251213,86.1863114 95.4400408,84.003738 55.6162208,95.5843654 C49.2213714,97.4426201 42.4586244,93.9836705 40.5206708,87.856473 C38.5827172,81.7263987 42.1897217,75.251191 48.5892515,73.3884519 C94.304203,60.0917183 170.300065,62.6607161 218.322193,89.9754181 C224.074237,93.2462746 225.961236,100.364028 222.551957,105.867887 C219.152038,111.379107 211.703126,113.195902 205.969715,109.923607 L205.968214,109.923607 L205.968214,109.923607 Z M352.102718,114.472362 C329.757482,109.366858 325.779577,105.783613 325.779577,98.2540518 C325.779577,91.1407829 332.769456,86.3536745 343.163934,86.3536745 C353.240057,86.3536745 363.231137,89.9887868 373.705977,97.472319 C374.022832,97.6989107 374.420048,97.7891073 374.810994,97.7299634 C375.202029,97.6736962 375.548203,97.4678345 375.776925,97.1584075 L386.687572,82.4223346 C387.135743,81.8152416 387.013611,80.9786801 386.409397,80.5151741 C373.942558,70.93055 359.903985,66.2706985 343.49483,66.2706985 C319.367772,66.2706985 302.515038,80.1434724 302.515038,99.9924954 C302.515038,121.277727 317.052737,128.814565 342.175044,134.632251 C363.557441,139.351246 367.166035,143.304839 367.166035,150.372248 C367.166035,158.203706 359.868485,163.072296 348.124901,163.072296 C335.081666,163.072296 324.443012,158.862666 312.541707,148.987738 C312.246576,148.743377 311.841589,148.632451 311.467686,148.653181 C311.07356,148.684233 310.713434,148.858958 310.463165,149.14774 L298.22964,163.097511 C297.716561,163.676428 297.781468,164.541165 298.374997,165.041731 C312.22185,176.885926 329.252263,183.141988 347.630456,183.141988 C373.628883,183.141988 390.429305,169.531258 390.429305,148.465172 C390.475523,130.681789 379.364059,120.835036 352.149257,114.491654 L352.102718,114.472362 L352.102718,114.472362 Z M449.247487,93.3573705 C437.97839,93.3573705 428.735204,97.6099832 421.113205,106.323947 L421.113205,96.5156927 C421.113205,95.7413212 420.457948,95.1105367 419.65124,95.1105367 L399.642763,95.1105367 C398.834554,95.1105367 398.180798,95.7413212 398.180798,96.5156927 L398.180798,205.499088 C398.180798,206.273459 398.834466,206.904244 399.642763,206.904244 L419.65124,206.904244 C420.457948,206.904244 421.113205,206.273544 421.113205,205.499088 L421.113205,171.097685 C428.736793,179.294922 437.981481,183.300297 449.247487,183.300297 C470.186304,183.300297 491.383373,167.856528 491.383373,138.334038 C491.414248,108.804186 470.211119,93.3559321 449.270712,93.3559321 L449.247487,93.3573705 Z M444.612735,163.858598 C440.501474,163.858598 436.693723,162.868219 433.37832,161.087677 C425.660728,156.942935 420.610988,148.516579 420.610988,138.334038 C420.610988,123.778697 430.931286,112.809562 444.612735,112.809562 C458.227952,112.808039 468.118624,123.540259 468.118624,138.332515 C468.117034,153.367776 458.451993,163.858598 444.612735,163.858598 Z M545.71236,93.3573705 C518.746414,93.3573705 497.620556,113.252253 497.620556,138.65531 C497.620556,163.781516 518.601144,183.467576 545.381641,183.467576 C572.443403,183.467576 593.634079,163.639367 593.634079,138.333953 C593.634079,113.115943 572.585493,93.3603319 545.71077,93.3603319 L545.71236,93.3573705 L545.71236,93.3573705 Z M545.71236,164.008108 C531.369296,164.008108 520.556053,152.966376 520.556053,138.326592 C520.556053,123.624533 530.995393,112.956026 545.381552,112.956026 C559.817341,112.956026 570.703174,123.997673 570.703174,138.647865 C570.703174,153.346962 560.194423,164.008108 545.713773,164.008108 L545.71236,164.008108 L545.71236,164.008108 Z M651.217749,95.1106213 L629.20023,95.1106213 L629.20023,73.5425308 C629.20023,72.7695977 628.548064,72.1388133 627.739854,72.1388133 L607.734469,72.1388133 C606.92467,72.1388133 606.267912,72.7695977 606.267912,73.5425308 L606.267912,95.1106213 L596.647643,95.1106213 C595.842525,95.1106213 595.190271,95.7413212 595.190271,96.5157773 L595.190271,112.991648 C595.190271,113.764581 595.842525,114.396804 596.647643,114.396804 L606.267912,114.396804 L606.267912,157.028019 C606.267912,174.256092 615.21738,182.99087 632.86755,182.99087 C640.044557,182.99087 645.998918,181.570823 651.610373,178.522073 C652.066227,178.277713 652.348995,177.80693 652.348995,177.306449 L652.348995,161.616796 C652.348995,161.13256 652.086185,160.675061 651.653557,160.421901 C651.217749,160.159773 650.675352,160.146488 650.228682,160.358188 C646.374322,162.216528 642.648453,163.073819 638.483509,163.073819 C632.063933,163.073819 629.20023,160.281191 629.20023,154.022252 L629.20023,114.404334 L651.217749,114.404334 C652.025958,114.404334 652.676623,113.77355 652.676623,112.999178 L652.676623,96.5247462 C652.707532,95.7503747 652.058456,95.1195902 651.239473,95.1195902 L651.217749,95.1106213 L651.217749,95.1106213 Z M727.932275,95.1949798 L727.932275,92.5459388 C727.932275,84.752895 731.050839,81.2776999 738.045487,81.2776999 C742.216525,81.2776999 745.567078,82.0713629 749.319264,83.2707419 C749.781388,83.4100137 750.26347,83.3403778 750.63905,83.0752875 C751.025405,82.8101973 751.243353,82.3852745 751.243353,81.9351372 L751.243353,65.7805397 C751.243353,65.1630393 750.829181,64.6166979 750.207835,64.4345277 C746.243795,63.3047 741.171823,62.1453427 733.577729,62.1453427 C715.097538,62.1453427 705.328998,72.1164756 705.328998,90.9703738 L705.328998,95.0275321 L695.716501,95.0275321 C694.909793,95.0275321 694.248355,95.6583166 694.248355,96.4312496 L694.248355,112.991563 C694.248355,113.764496 694.909793,114.396719 695.716501,114.396719 L705.328998,114.396719 L705.328998,180.153652 C705.328998,180.928023 705.981164,181.558808 706.787961,181.558808 L726.796437,181.558808 C727.604646,181.558808 728.262994,180.928023 728.262994,180.153652 L728.262994,114.401288 L746.944001,114.401288 L775.560453,180.141975 C772.311986,187.049467 769.117475,188.42357 764.756484,188.42357 C761.231342,188.42357 757.519249,187.415161 753.723615,185.425081 C753.366668,185.236988 752.943224,185.205935 752.558459,185.319992 C752.176697,185.448772 751.855338,185.721224 751.693025,186.076595 L744.911733,200.331394 C744.588697,201.005161 744.86537,201.795947 745.542263,202.145311 C752.621777,205.818922 759.012211,207.386957 766.910796,207.386957 C781.684899,207.386957 789.850973,200.793376 797.049528,183.054414 L831.761019,97.1139014 C831.935607,96.6815327 831.883151,96.1928969 831.606477,95.8094341 C831.331569,95.4288481 830.887902,95.1993796 830.402552,95.1993796 L809.573415,95.1993796 C808.949243,95.1993796 808.391038,95.579881 808.18722,96.1411142 L786.849772,154.537456 L763.478467,96.1026156 C763.265288,95.559151 762.71821,95.199295 762.112407,95.199295 L727.927683,95.199295 L727.932275,95.1949798 L727.932275,95.1949798 Z M683.455159,95.1106213 L663.446682,95.1106213 C662.638385,95.1106213 661.980125,95.7413212 661.980125,96.5157773 L661.980125,180.153736 C661.980125,180.928108 662.638385,181.558892 663.446682,181.558892 L683.455159,181.558892 C684.261867,181.558892 684.921719,180.928108 684.921719,180.153736 L684.921719,96.5216155 C684.922588,96.1484107 684.768125,95.7902741 684.49254,95.5265286 C684.216955,95.2627832 683.842992,95.1151974 683.453481,95.1164596 L683.455159,95.1106213 Z M673.564486,57.0281619 C665.638084,57.0281619 659.206056,63.1760048 659.206056,70.7706329 C659.206056,78.3696608 665.639674,84.5250341 673.564575,84.5250341 C681.487975,84.5250341 687.913644,78.3696608 687.913644,70.7706329 C687.913644,63.1775278 681.484795,57.0281619 673.572346,57.0281619 L673.564486,57.0281619 L673.564486,57.0281619 Z M848.845477,122.001754 C840.926757,122.001754 834.76531,115.908571 834.76531,108.509482 C834.76531,101.110393 841.007207,94.9476581 848.919657,94.9476581 C856.838553,94.9476581 863,101.039318 863,108.432485 C863,115.831658 856.756425,122.001754 848.844064,122.001754 L848.845477,122.001754 L848.845477,122.001754 Z M848.922748,96.2891856 C841.710328,96.2891856 836.253415,101.782637 836.253415,108.509482 C836.253415,115.23345 841.671649,120.652866 848.850157,120.652866 C856.060987,120.652866 861.52417,115.163898 861.52417,108.432485 C861.52417,101.708601 856.099667,96.2891856 848.929018,96.2891856 L848.922748,96.2891856 L848.922748,96.2891856 Z M852.044668,109.819872 L856.027253,115.162375 L852.669105,115.162375 L849.083559,110.26121 L846.000672,110.26121 L846.000672,115.162375 L843.189602,115.162375 L843.189602,101.00082 L849.780763,101.00082 C853.214681,101.00082 855.47258,102.68435 855.47258,105.518523 C855.487946,107.840283 854.081705,109.258808 852.057119,109.819957 L852.044668,109.819957 L852.044668,109.819872 Z M849.664725,103.430715 L845.998818,103.430715 L845.998818,107.909919 L849.664725,107.909919 C851.494411,107.909919 852.586888,107.052543 852.586888,105.668117 C852.586888,104.211094 851.48973,103.4308 849.666138,103.4308 L849.664725,103.4308 L849.664725,103.430715 Z" id="Shape"></path>
        </g>
    </g>
</svg>