<?xml version="1.0" encoding="utf-8"?>
<svg id="master-artboard" viewBox="0 0 155.1272735595703 144.70790100097656" version="1.1" xmlns="http://www.w3.org/2000/svg" x="0px" y="0px" style="enable-background:new 0 0 1400 980;" width="155.1272735595703px" height="144.70790100097656px"><rect id="ee-background" x="0" y="0" width="155.1272735595703" height="144.70790100097656" style="fill: rgb(255, 255, 255); fill-opacity: 0; pointer-events: none;"/><defs><linearGradient id="gradient-67" gradientUnits="userSpaceOnUse" x1="104.99999618530273" y1="1065.4000244140625" x2="104.99999618530273" y2="1162">
                <stop offset="0" style="stop-color: #ffffff"/>
                <stop offset="1" style="stop-color: #cccccc"/>
              </linearGradient><linearGradient id="gradient-68" gradientUnits="userSpaceOnUse" x1="700.0499801635742" y1="179.09996032714844" x2="700.0499801635742" y2="845.5998992919922">
                <stop offset="0" style="stop-color: #ffffff"/>
                <stop offset="1" style="stop-color: #cccccc"/>
              </linearGradient><linearGradient id="gradient-0" gradientUnits="userSpaceOnUse" x1="96.04645538330078" y1="249" x2="96.04645538330078" y2="279.0244331359863">
                <stop offset="0" style="stop-color: #ffffff"/>
                <stop offset="1" style="stop-color: #cccccc"/>
              </linearGradient><linearGradient id="gradient-1" gradientUnits="userSpaceOnUse" x1="104.99999618530273" y1="1065.4000244140625" x2="104.99999618530273" y2="1162">
                <stop offset="0" style="stop-color: #ffffff"/>
                <stop offset="1" style="stop-color: #cccccc"/>
              </linearGradient><linearGradient id="gradient-2" gradientUnits="userSpaceOnUse" x1="700.0499801635742" y1="179.09996032714844" x2="700.0499801635742" y2="845.5998992919922">
                <stop offset="0" style="stop-color: #ffffff"/>
                <stop offset="1" style="stop-color: #cccccc"/>
              </linearGradient><linearGradient id="gradient-3" gradientUnits="userSpaceOnUse" x1="104.08536911010742" y1="249" x2="104.08536911010742" y2="279.0244331359863">
                <stop offset="0" style="stop-color: #ffffff"/>
                <stop offset="1" style="stop-color: #cccccc"/>
              </linearGradient><style id="ee-google-fonts">@import url(https://fonts.googleapis.com/css?family=Montserrat:400,700);</style></defs>










<g transform="matrix(1.0531960725784304, -0.5755159854888917, 0.5755159854888917, 1.0531960725784304, -1043.4902012516468, 177.5807076440147)">
		<path d="M859.001,374.182v53.972c0,1.638,1.331,2.966,2.967,2.966c1.64,0,2.971-1.328,2.971-2.966v-53.972h13.102&#10;&#9;&#9;&#9;c0-35.977-16.072-52.062-16.072-52.062s-16.072,16.085-16.072,52.062H859.001z" style="fill: rgb(255, 255, 255);"/>
		<path d="M861.968,322.12c0,0,32.711,11.357,32.711,52.062h19.352C914.03,345.43,890.724,322.12,861.968,322.12z" style="fill: rgb(255, 255, 255);"/>
		<path d="M809.908,374.182h19.353c0-40.704,32.707-52.062,32.707-52.062C833.216,322.12,809.908,345.43,809.908,374.182z" style="fill: rgb(255, 255, 255);"/>
	<path d="M 861.3211059570312 429.1136169433594" style="fill: rgb(255, 255, 255); fill-opacity: 1; stroke: rgb(0, 0, 0); stroke-opacity: 1; stroke-width: 0; paint-order: fill;"/><path d="M 861.6738891601562 419.4434509277344" style="fill: rgb(255, 255, 255); fill-opacity: 1; stroke: rgb(0, 0, 0); stroke-opacity: 1; stroke-width: 0; paint-order: fill;"/><path d="M 863.094970703125 429.91290283203125" style="fill: rgb(255, 255, 255); fill-opacity: 1; stroke: rgb(0, 0, 0); stroke-opacity: 1; stroke-width: 0; paint-order: fill;"/><path d="M 862.7142944335938 429.3647766113281" style="fill: rgb(255, 255, 255); fill-opacity: 1; stroke: rgb(0, 0, 0); stroke-opacity: 1; stroke-width: 0; paint-order: fill;"/></g></svg>